<?xml version="1.0" encoding="utf-8"?>
<!-- Generator: Adobe Illustrator 22.0.0, SVG Export Plug-In . SVG Version: 6.00 Build 0)  -->
<svg version="1.1" id="Laag_1" xmlns="http://www.w3.org/2000/svg" xmlns:xlink="http://www.w3.org/1999/xlink" x="0px" y="0px"
	 viewBox="0 0 712.7 141.7" style="enable-background:new 0 0 712.7 141.7;" xml:space="preserve">
<style type="text/css">
	.st0{fill:#FFFFFF;}
</style>
<g>
	<path class="st0" d="M203.7,73.5c0-1-0.2-1.7-0.7-2.3s-1.1-1.1-1.9-1.5c-0.8-0.4-1.7-0.7-2.7-0.9c-1-0.2-2.1-0.5-3.2-0.7
		c-1.5-0.3-2.9-0.7-4.2-1.1c-1.3-0.4-2.5-1.1-3.5-1.8c-1-0.8-1.8-1.8-2.4-3c-0.6-1.2-0.9-2.7-0.9-4.5c0-2,0.3-3.7,1-5.2
		c0.7-1.5,1.6-2.7,2.8-3.7c1.2-1,2.6-1.7,4.2-2.2c1.6-0.5,3.4-0.7,5.5-0.7s4,0.2,6.1,0.6s3.8,0.9,5.3,1.5v5.9
		c-2-0.8-3.8-1.3-5.7-1.7c-1.8-0.3-3.5-0.5-5.1-0.5c-2.3,0-4,0.4-5.3,1.2c-1.2,0.8-1.9,2.1-1.9,3.7c0,1,0.2,1.8,0.6,2.4
		c0.4,0.6,1,1.1,1.7,1.5c0.7,0.4,1.5,0.7,2.4,1c0.9,0.2,1.9,0.5,2.9,0.7c1.6,0.3,3.1,0.7,4.6,1.2c1.5,0.4,2.8,1.1,3.9,1.9
		s2,1.8,2.7,3.1s1,2.9,1,4.9c0,2-0.4,3.8-1.1,5.3c-0.8,1.5-1.8,2.7-3.2,3.7c-1.4,1-3.1,1.7-5.1,2.2s-4.2,0.7-6.5,0.7
		c-2.1,0-4.1-0.2-6.1-0.6c-2-0.4-3.6-1-5-1.7v-5.9c1.9,0.8,3.7,1.4,5.5,1.8s3.6,0.6,5.5,0.6c1.1,0,2.2-0.1,3.2-0.3s2-0.5,2.8-0.9
		c0.8-0.4,1.5-1,2-1.8S203.7,74.6,203.7,73.5z"/>
	<path class="st0" d="M237.4,83.8c-0.8,0.4-1.9,0.7-3.1,0.9s-2.5,0.4-3.9,0.4c-2,0-3.8-0.3-5.6-0.8s-3.2-1.4-4.5-2.6
		c-1.3-1.2-2.3-2.6-3-4.4s-1.1-3.8-1.1-6.2c0-2.6,0.4-4.9,1.3-6.8c0.8-1.9,1.9-3.4,3.3-4.6c1.3-1.2,2.9-2,4.6-2.6
		c1.7-0.6,3.4-0.8,5-0.8c1.2,0,2.4,0.1,3.5,0.3c1.1,0.2,2.2,0.5,3.1,0.9V63c-0.8-0.4-1.7-0.6-2.6-0.9c-0.9-0.2-1.9-0.3-3-0.3
		s-2.1,0.2-3.1,0.5c-1,0.3-1.9,0.9-2.6,1.6c-0.8,0.7-1.4,1.7-1.8,2.8c-0.4,1.2-0.7,2.6-0.7,4.3c0,1.2,0.2,2.3,0.5,3.4s0.8,2,1.5,2.7
		c0.7,0.8,1.5,1.4,2.5,1.8c1,0.5,2.2,0.7,3.6,0.7c1.2,0,2.3-0.1,3.3-0.4c1-0.2,1.9-0.5,2.8-0.9V83.8z"/>
	<path class="st0" d="M269.4,70.7c0,2.2-0.3,4.1-1,5.9c-0.6,1.8-1.6,3.3-2.8,4.6c-1.2,1.3-2.6,2.2-4.3,2.9c-1.7,0.7-3.6,1-5.7,1
		c-2.2,0-4.1-0.3-5.8-1c-1.7-0.7-3.2-1.7-4.3-2.9c-1.2-1.3-2.1-2.8-2.7-4.6c-0.6-1.8-0.9-3.7-0.9-5.9c0-2.2,0.3-4.1,1-5.9
		c0.6-1.8,1.6-3.3,2.8-4.6c1.2-1.3,2.6-2.2,4.3-2.9c1.7-0.7,3.6-1,5.7-1c2.2,0,4.1,0.3,5.8,1c1.7,0.7,3.2,1.7,4.3,2.9
		c1.2,1.3,2.1,2.8,2.7,4.6C269.1,66.6,269.4,68.5,269.4,70.7z M262.5,70.7c0-1.5-0.2-2.7-0.5-3.9c-0.3-1.1-0.8-2-1.4-2.8
		c-0.6-0.8-1.3-1.3-2.2-1.7c-0.8-0.4-1.8-0.6-2.8-0.6c-1,0-1.9,0.2-2.7,0.6c-0.8,0.4-1.6,0.9-2.2,1.7c-0.6,0.8-1.1,1.7-1.4,2.8
		c-0.3,1.1-0.5,2.4-0.5,3.9s0.2,2.7,0.5,3.9c0.3,1.1,0.8,2,1.4,2.8c0.6,0.7,1.3,1.3,2.2,1.7c0.8,0.4,1.8,0.6,2.8,0.6
		c1,0,1.9-0.2,2.7-0.6s1.5-1,2.2-1.7s1.1-1.7,1.4-2.8C262.3,73.4,262.5,72.1,262.5,70.7z"/>
	<path class="st0" d="M287.5,85.1c-2.8,0-5-0.5-6.9-1.4s-3.2-2.2-4.1-3.8c-0.5-0.8-0.9-1.8-1.1-2.8c-0.2-1-0.4-2.2-0.4-3.4V56.9h6.7
		V73c0,0.9,0.1,1.7,0.2,2.4s0.3,1.3,0.6,1.7c0.5,0.8,1.1,1.4,1.9,1.9s1.8,0.6,3,0.6c1.2,0,2.2-0.2,3.1-0.7c0.9-0.5,1.5-1.1,1.9-2.1
		c0.4-0.9,0.7-2.1,0.7-3.7V56.9h6.7v16.8c0,2.2-0.4,4.1-1.2,5.6c-0.4,0.9-1,1.7-1.7,2.4c-0.7,0.7-1.5,1.3-2.4,1.8
		c-0.9,0.5-2,0.9-3.2,1.2C290.2,85,288.9,85.1,287.5,85.1z"/>
	<path class="st0" d="M323.7,84.4c-0.8,0.2-1.7,0.4-2.7,0.5c-1,0.1-2,0.2-2.9,0.2c-2.3,0-4.2-0.4-5.6-1.1c-1.5-0.7-2.5-1.8-3.1-3.2
		c-0.4-1-0.7-2.4-0.7-4.1V62.5h-5.1v-5.5h5.1v-7.7h6.7v7.7h7.9v5.5h-7.9v13.3c0,1.1,0.2,1.8,0.5,2.4c0.6,0.9,1.7,1.3,3.4,1.3
		c0.8,0,1.5-0.1,2.3-0.2c0.8-0.1,1.5-0.3,2.2-0.5V84.4z"/>
	<path class="st0" d="M329,43.4h7.1v7.3H329V43.4z M329.1,56.9h6.7v27.4h-6.7V56.9z"/>
	<path class="st0" d="M349.5,60.8h0.1c0.4-0.6,0.9-1.1,1.5-1.7c0.6-0.5,1.3-1,2.1-1.4c0.8-0.4,1.6-0.8,2.6-1c0.9-0.3,1.9-0.4,3-0.4
		c1,0,2,0.1,2.9,0.3c0.9,0.2,1.8,0.6,2.6,1.1s1.5,1.1,2.1,1.9c0.6,0.8,1.1,1.7,1.4,2.7c0.2,0.6,0.3,1.2,0.4,1.9
		c0.1,0.7,0.1,1.5,0.1,2.4v17.8h-6.7V67.6c0-0.7,0-1.4-0.1-1.9c-0.1-0.5-0.2-1-0.3-1.4c-0.3-0.9-0.9-1.5-1.5-1.9
		c-0.7-0.4-1.5-0.6-2.5-0.6c-1.3,0-2.6,0.3-3.8,0.9c-1.2,0.6-2.3,1.5-3.2,2.7v18.9h-6.7V56.9h5.6L349.5,60.8z"/>
	<path class="st0" d="M393.4,85.1c0-0.4,0-0.8,0-1.4c0-0.6,0-1,0.1-1.4h-0.1c-0.4,0.3-0.9,0.7-1.4,1c-0.5,0.3-1.1,0.6-1.8,0.9
		s-1.3,0.5-2.1,0.7c-0.8,0.2-1.6,0.2-2.4,0.2c-1.5,0-2.9-0.3-4.3-0.8c-1.4-0.5-2.6-1.3-3.7-2.5s-1.9-2.6-2.6-4.3s-1-3.9-1-6.3
		s0.3-4.6,1-6.5c0.7-1.9,1.6-3.4,2.7-4.7s2.4-2.2,3.8-2.8c1.4-0.6,2.9-0.9,4.5-0.9c1.7,0,3.2,0.4,4.5,1.1s2.4,1.6,3.2,2.7h0.1
		l0.3-3.1h5.9v28c0,1.6-0.1,3-0.4,4.1s-0.7,2.2-1.2,3.1c-0.6,1-1.4,1.9-2.3,2.7c-0.9,0.8-2,1.4-3.2,1.9c-1.2,0.5-2.5,0.9-4,1.1
		c-1.4,0.3-3,0.4-4.6,0.4c-0.9,0-1.8,0-2.7-0.1s-1.7-0.2-2.4-0.3c-0.8-0.1-1.5-0.3-2.1-0.4c-0.6-0.2-1.2-0.3-1.6-0.5v-5.5
		c1.2,0.4,2.6,0.7,3.9,0.9c1.4,0.2,2.8,0.3,4.3,0.3c3,0,5.3-0.6,7-1.7s2.5-2.9,2.5-5.3V85.1z M387.4,79.7c0.7,0,1.3-0.1,1.9-0.3
		s1.2-0.4,1.7-0.7c0.5-0.3,1-0.6,1.4-0.9c0.4-0.3,0.8-0.6,1-1V64.7c-0.7-0.8-1.6-1.6-2.7-2.1s-2.2-0.9-3.4-0.9
		c-0.4,0-0.9,0.1-1.3,0.2c-0.5,0.1-0.9,0.3-1.4,0.6c-0.5,0.3-0.9,0.6-1.3,1.1c-0.4,0.4-0.8,1-1.1,1.7s-0.6,1.5-0.8,2.4
		c-0.2,0.9-0.3,2-0.3,3.3c0,1.4,0.1,2.6,0.4,3.7s0.7,2,1.2,2.8s1.2,1.3,2,1.8C385.4,79.5,386.3,79.7,387.4,79.7z"/>
	<path class="st0" d="M420.2,84.4V46.5h6.9v37.9H420.2z"/>
	<path class="st0" d="M443.7,46.5h6.9v28c0,1.2-0.1,2.3-0.3,3.2c-0.2,0.9-0.4,1.7-0.8,2.4c-0.5,0.9-1.1,1.7-1.8,2.3
		s-1.5,1.2-2.4,1.6s-1.9,0.7-2.9,0.9c-1,0.2-2.1,0.3-3.2,0.3c-1.2,0-2.3-0.1-3.4-0.3c-1.1-0.2-2-0.4-2.7-0.7v-5.9
		c0.8,0.3,1.7,0.6,2.7,0.8c0.9,0.2,1.9,0.3,2.8,0.3c1.8,0,3.1-0.4,3.9-1.2c0.8-0.8,1.2-2.1,1.2-3.7V46.5z"/>
	<path class="st0" d="M470.9,76.4c0-0.6-0.2-1.1-0.5-1.4c-0.3-0.4-0.8-0.7-1.3-0.9s-1.2-0.5-1.9-0.7c-0.7-0.2-1.4-0.4-2.2-0.6
		c-1-0.3-1.9-0.6-2.8-0.9c-0.9-0.3-1.7-0.8-2.4-1.4c-0.7-0.6-1.2-1.3-1.6-2.1c-0.4-0.9-0.6-1.9-0.6-3.2c0-1.5,0.3-2.9,0.8-4
		c0.5-1.1,1.3-2.1,2.2-2.8c0.9-0.7,2-1.3,3.3-1.6c1.2-0.4,2.5-0.5,3.9-0.5c1.7,0,3.3,0.1,4.7,0.4c1.5,0.3,2.8,0.6,4,1.1v5.5
		c-0.6-0.2-1.3-0.4-2-0.6c-0.7-0.2-1.4-0.3-2.1-0.5c-0.7-0.1-1.4-0.2-2.1-0.3s-1.4-0.1-2-0.1c-0.8,0-1.5,0.1-2,0.2
		c-0.5,0.2-1,0.4-1.3,0.6s-0.6,0.5-0.7,0.9c-0.2,0.3-0.2,0.7-0.2,1c0,0.6,0.2,1.1,0.5,1.5c0.3,0.4,0.8,0.7,1.4,1
		c0.6,0.2,1.2,0.4,1.8,0.6c0.6,0.2,1.3,0.3,1.9,0.5c0.9,0.2,1.9,0.5,2.8,0.8c0.9,0.3,1.8,0.8,2.5,1.3c0.8,0.6,1.4,1.3,1.9,2.2
		c0.5,0.9,0.7,2.1,0.7,3.5c0,1.5-0.3,2.9-0.9,4c-0.6,1.2-1.4,2.1-2.4,2.9c-1,0.8-2.3,1.3-3.8,1.7c-1.5,0.4-3.1,0.6-4.8,0.6
		c-1.7,0-3.3-0.1-4.7-0.4c-1.4-0.3-2.5-0.6-3.4-1v-5.4c1.5,0.5,2.8,0.9,4.1,1.1s2.4,0.3,3.5,0.3c0.8,0,1.6-0.1,2.3-0.2
		s1.3-0.3,1.9-0.6c0.5-0.3,0.9-0.6,1.2-1S470.9,77,470.9,76.4z"/>
	<path class="st0" d="M495.5,76.4c0-0.6-0.2-1.1-0.5-1.4c-0.3-0.4-0.8-0.7-1.3-0.9s-1.2-0.5-1.9-0.7c-0.7-0.2-1.4-0.4-2.2-0.6
		c-1-0.3-1.9-0.6-2.8-0.9c-0.9-0.3-1.7-0.8-2.4-1.4c-0.7-0.6-1.2-1.3-1.6-2.1c-0.4-0.9-0.6-1.9-0.6-3.2c0-1.5,0.3-2.9,0.8-4
		c0.5-1.1,1.3-2.1,2.2-2.8c0.9-0.7,2-1.3,3.3-1.6c1.2-0.4,2.5-0.5,3.9-0.5c1.7,0,3.3,0.1,4.7,0.4c1.5,0.3,2.8,0.6,4,1.1v5.5
		c-0.6-0.2-1.3-0.4-2-0.6c-0.7-0.2-1.4-0.3-2.1-0.5c-0.7-0.1-1.4-0.2-2.1-0.3s-1.4-0.1-2-0.1c-0.8,0-1.5,0.1-2,0.2
		c-0.5,0.2-1,0.4-1.3,0.6s-0.6,0.5-0.7,0.9c-0.2,0.3-0.2,0.7-0.2,1c0,0.6,0.2,1.1,0.5,1.5c0.3,0.4,0.8,0.7,1.4,1
		c0.6,0.2,1.2,0.4,1.8,0.6c0.6,0.2,1.3,0.3,1.9,0.5c0.9,0.2,1.9,0.5,2.8,0.8c0.9,0.3,1.8,0.8,2.5,1.3c0.8,0.6,1.4,1.3,1.9,2.2
		c0.5,0.9,0.7,2.1,0.7,3.5c0,1.5-0.3,2.9-0.9,4c-0.6,1.2-1.4,2.1-2.4,2.9c-1,0.8-2.3,1.3-3.8,1.7c-1.5,0.4-3.1,0.6-4.8,0.6
		c-1.7,0-3.3-0.1-4.7-0.4c-1.4-0.3-2.5-0.6-3.4-1v-5.4c1.5,0.5,2.8,0.9,4.1,1.1s2.4,0.3,3.5,0.3c0.8,0,1.6-0.1,2.3-0.2
		s1.3-0.3,1.9-0.6c0.5-0.3,0.9-0.6,1.2-1S495.5,77,495.5,76.4z"/>
	<path class="st0" d="M522,79.7c1.3,0,2.7-0.1,4.1-0.4c1.4-0.3,2.9-0.6,4.3-1.1v5.4c-0.9,0.4-2.2,0.7-4,1.1s-3.7,0.5-5.6,0.5
		c-1.9,0-3.8-0.3-5.5-0.8c-1.7-0.5-3.3-1.3-4.6-2.4c-1.3-1.1-2.3-2.6-3.1-4.3c-0.8-1.8-1.1-3.9-1.1-6.5c0-2.5,0.4-4.7,1.1-6.5
		s1.7-3.4,2.9-4.6c1.2-1.2,2.6-2.1,4.1-2.8c1.6-0.6,3.2-0.9,4.8-0.9c1.7,0,3.3,0.3,4.8,0.8c1.5,0.5,2.7,1.4,3.8,2.5
		c1.1,1.1,1.9,2.6,2.5,4.4c0.6,1.8,0.9,3.9,0.9,6.3c0,0.9,0,1.7-0.1,2.4h-18c0.1,1.3,0.4,2.3,0.8,3.2s1.1,1.6,1.9,2.2
		c0.8,0.6,1.7,1,2.7,1.2S520.8,79.7,522,79.7z M519.3,61.5c-0.8,0-1.6,0.2-2.3,0.5s-1.2,0.7-1.7,1.3c-0.5,0.5-0.9,1.2-1.1,1.9
		c-0.3,0.7-0.5,1.5-0.6,2.3h10.8c0-0.8-0.1-1.6-0.3-2.3c-0.2-0.7-0.5-1.3-1-1.9c-0.4-0.5-1-1-1.6-1.3
		C520.9,61.7,520.2,61.5,519.3,61.5z"/>
	<path class="st0" d="M537.9,84.4v-41h6.7v41H537.9z"/>
	<path class="st0" d="M570.1,85.1c0-0.4,0-0.8,0-1.4c0-0.6,0-1,0.1-1.4h-0.1c-0.4,0.3-0.9,0.7-1.4,1c-0.5,0.3-1.1,0.6-1.8,0.9
		s-1.3,0.5-2.1,0.7c-0.8,0.2-1.6,0.2-2.4,0.2c-1.5,0-2.9-0.3-4.3-0.8c-1.4-0.5-2.6-1.3-3.7-2.5s-1.9-2.6-2.6-4.3s-1-3.9-1-6.3
		s0.3-4.6,1-6.5c0.7-1.9,1.6-3.4,2.7-4.7s2.4-2.2,3.8-2.8c1.4-0.6,2.9-0.9,4.5-0.9c1.7,0,3.2,0.4,4.5,1.1s2.4,1.6,3.2,2.7h0.1
		l0.3-3.1h5.9v28c0,1.6-0.1,3-0.4,4.1s-0.7,2.2-1.2,3.1c-0.6,1-1.4,1.9-2.3,2.7c-0.9,0.8-2,1.4-3.2,1.9c-1.2,0.5-2.5,0.9-4,1.1
		c-1.4,0.3-3,0.4-4.6,0.4c-0.9,0-1.8,0-2.7-0.1s-1.7-0.2-2.4-0.3c-0.8-0.1-1.5-0.3-2.1-0.4c-0.6-0.2-1.2-0.3-1.6-0.5v-5.5
		c1.2,0.4,2.6,0.7,3.9,0.9c1.4,0.2,2.8,0.3,4.3,0.3c3,0,5.3-0.6,7-1.7s2.5-2.9,2.5-5.3V85.1z M564.1,79.7c0.7,0,1.3-0.1,1.9-0.3
		s1.2-0.4,1.7-0.7c0.5-0.3,1-0.6,1.4-0.9c0.4-0.3,0.8-0.6,1-1V64.7c-0.7-0.8-1.6-1.6-2.7-2.1s-2.2-0.9-3.4-0.9
		c-0.4,0-0.9,0.1-1.3,0.2c-0.5,0.1-0.9,0.3-1.4,0.6c-0.5,0.3-0.9,0.6-1.3,1.1c-0.4,0.4-0.8,1-1.1,1.7s-0.6,1.5-0.8,2.4
		c-0.2,0.9-0.3,2-0.3,3.3c0,1.4,0.1,2.6,0.4,3.7s0.7,2,1.2,2.8s1.2,1.3,2,1.8C562.1,79.5,563,79.7,564.1,79.7z"/>
	<path class="st0" d="M600.5,62.3h-0.6c-2.1,0-3.9,0.3-5.4,0.9c-1.6,0.6-2.8,1.6-3.6,2.8v18.4h-6.7V56.9h5.6l0.6,3.8h0.1
		c0.8-1.4,1.9-2.5,3.3-3.3c1.4-0.8,3.1-1.2,5-1.2c0.7,0,1.3,0,1.8,0.1V62.3z"/>
	<path class="st0" d="M630.6,70.7c0,2.2-0.3,4.1-1,5.9c-0.6,1.8-1.6,3.3-2.8,4.6c-1.2,1.3-2.6,2.2-4.3,2.9c-1.7,0.7-3.6,1-5.7,1
		c-2.2,0-4.1-0.3-5.8-1c-1.7-0.7-3.2-1.7-4.3-2.9c-1.2-1.3-2.1-2.8-2.7-4.6c-0.6-1.8-0.9-3.7-0.9-5.9c0-2.2,0.3-4.1,1-5.9
		c0.6-1.8,1.6-3.3,2.8-4.6c1.2-1.3,2.6-2.2,4.3-2.9c1.7-0.7,3.6-1,5.7-1c2.2,0,4.1,0.3,5.8,1c1.7,0.7,3.2,1.7,4.3,2.9
		c1.2,1.3,2.1,2.8,2.7,4.6C630.3,66.6,630.6,68.5,630.6,70.7z M623.7,70.7c0-1.5-0.2-2.7-0.5-3.9c-0.3-1.1-0.8-2-1.4-2.8
		c-0.6-0.8-1.3-1.3-2.2-1.7c-0.8-0.4-1.8-0.6-2.8-0.6c-1,0-1.9,0.2-2.7,0.6c-0.8,0.4-1.6,0.9-2.2,1.7c-0.6,0.8-1.1,1.7-1.4,2.8
		c-0.3,1.1-0.5,2.4-0.5,3.9s0.2,2.7,0.5,3.9c0.3,1.1,0.8,2,1.4,2.8c0.6,0.7,1.3,1.3,2.2,1.7c0.8,0.4,1.8,0.6,2.8,0.6
		s1.9-0.2,2.7-0.6s1.5-1,2.2-1.7s1.1-1.7,1.4-2.8C623.5,73.4,623.7,72.1,623.7,70.7z"/>
	<path class="st0" d="M650.7,79.7c1.3,0,2.7-0.1,4.1-0.4c1.4-0.3,2.9-0.6,4.3-1.1v5.4c-0.9,0.4-2.2,0.7-4,1.1s-3.7,0.5-5.6,0.5
		c-1.9,0-3.8-0.3-5.5-0.8c-1.7-0.5-3.3-1.3-4.6-2.4c-1.3-1.1-2.3-2.6-3.1-4.3c-0.8-1.8-1.1-3.9-1.1-6.5c0-2.5,0.4-4.7,1.1-6.5
		s1.7-3.4,2.9-4.6c1.2-1.2,2.6-2.1,4.1-2.8c1.6-0.6,3.2-0.9,4.8-0.9c1.7,0,3.3,0.3,4.8,0.8c1.5,0.5,2.7,1.4,3.8,2.5
		c1.1,1.1,1.9,2.6,2.5,4.4c0.6,1.8,0.9,3.9,0.9,6.3c0,0.9,0,1.7-0.1,2.4h-18c0.1,1.3,0.4,2.3,0.8,3.2s1.1,1.6,1.9,2.2
		c0.8,0.6,1.7,1,2.7,1.2S649.5,79.7,650.7,79.7z M648,61.5c-0.8,0-1.6,0.2-2.3,0.5s-1.2,0.7-1.7,1.3c-0.5,0.5-0.9,1.2-1.1,1.9
		c-0.3,0.7-0.5,1.5-0.6,2.3h10.8c0-0.8-0.1-1.6-0.3-2.3c-0.2-0.7-0.5-1.3-1-1.9c-0.4-0.5-1-1-1.6-1.3
		C649.6,61.7,648.8,61.5,648,61.5z"/>
	<path class="st0" d="M680,85.1c-1.5,0-2.8-0.3-4-0.8c-1.2-0.5-2.2-1.2-3-2h-0.1c0,0.4,0,0.9,0.1,1.6c0,0.7,0,1.4,0,2.3v11.4h-6.7
		V56.9h5.9l0.3,3.1h0.1c0.8-1.1,1.9-2,3.2-2.7s2.8-1.1,4.5-1.1c1.5,0,3,0.3,4.4,0.8c1.4,0.6,2.7,1.4,3.8,2.6c1.1,1.2,2,2.6,2.7,4.4
		c0.7,1.8,1,3.8,1,6.3c0,2.5-0.4,4.8-1.1,6.6s-1.7,3.4-2.8,4.6s-2.5,2.1-3.9,2.7C683,84.8,681.5,85.1,680,85.1z M679.1,61.7
		c-1.2,0-2.3,0.3-3.3,0.9c-1.1,0.6-2,1.3-2.8,2.3V77c0.3,0.3,0.6,0.6,1,1c0.4,0.3,0.8,0.6,1.3,0.9c0.5,0.3,1,0.5,1.6,0.7
		c0.6,0.2,1.2,0.3,1.9,0.3c1,0,2-0.2,2.8-0.7s1.5-1.1,2-1.9c0.5-0.8,0.9-1.8,1.2-2.9s0.4-2.4,0.4-3.8c0-1.5-0.1-2.8-0.4-3.9
		c-0.3-1.1-0.7-2-1.2-2.8c-0.5-0.7-1.2-1.3-1.9-1.7C680.9,61.8,680.1,61.7,679.1,61.7z"/>
</g>
<g>
	<path class="st0" d="M70.4,6.3c32.4,0,58.8,26.4,58.8,58.8c0,32.4-26.4,58.8-58.8,58.8c-32.4,0-58.8-26.4-58.8-58.8
		C11.6,32.7,38,6.3,70.4,6.3 M70.4,4.6C37,4.6,9.9,31.7,9.9,65.1s27.1,60.5,60.5,60.5s60.5-27.1,60.5-60.5S103.9,4.6,70.4,4.6
		L70.4,4.6z"/>
	<g>
		<path class="st0" d="M20.2,61.6l0.2-2.3c0.4,0,0.7-0.1,0.9-0.2c0.4-0.2,0.6-0.5,0.6-1c0-0.3,0-0.6-0.1-0.8
			c-0.1-0.2-0.3-0.3-0.5-0.4c-0.2,0-0.4,0-0.6,0.2c-0.2,0.2-0.4,0.6-0.6,1.2c-0.4,1-0.8,1.7-1.3,2.1c-0.5,0.4-1,0.6-1.6,0.5
			c-0.4-0.1-0.8-0.2-1.1-0.5c-0.3-0.3-0.6-0.7-0.7-1.2c-0.1-0.5-0.2-1.2,0-2c0.1-1,0.4-1.7,0.9-2.2c0.4-0.5,1.1-0.7,1.9-0.7L18,56.6
			c-0.4,0-0.6,0.1-0.8,0.3c-0.2,0.2-0.3,0.4-0.4,0.8c0,0.3,0,0.5,0.1,0.7c0.1,0.2,0.2,0.3,0.4,0.3c0.1,0,0.2,0,0.4-0.1
			c0.1-0.1,0.3-0.4,0.4-0.8c0.4-1,0.7-1.8,1-2.2c0.3-0.4,0.6-0.7,1-0.9c0.4-0.2,0.8-0.2,1.2-0.2c0.5,0.1,1,0.3,1.3,0.6
			c0.4,0.3,0.7,0.8,0.8,1.3c0.2,0.5,0.2,1.2,0.1,1.9c-0.2,1.3-0.6,2.2-1.2,2.7C21.7,61.4,21,61.6,20.2,61.6z"/>
		<path class="st0" d="M22.4,48.2l1.3-1.9c0.5,0.3,0.9,0.7,1.2,1.1c0.3,0.4,0.5,0.9,0.5,1.4c0.1,0.5,0,1.1-0.2,1.8
			c-0.3,0.8-0.6,1.5-1,1.9c-0.4,0.4-1,0.8-1.7,1c-0.7,0.2-1.6,0.1-2.5-0.1c-1.3-0.4-2.1-1-2.6-1.9c-0.5-0.9-0.5-1.9-0.1-3.1
			c0.3-1,0.7-1.6,1.3-2.1c0.6-0.4,1.3-0.6,2.2-0.7l-0.2,2.2c-0.3,0-0.4,0-0.6,0.1c-0.2,0.1-0.4,0.2-0.6,0.4
			c-0.2,0.2-0.3,0.4-0.3,0.6c-0.2,0.5-0.1,1,0.3,1.4c0.3,0.3,0.7,0.6,1.4,0.8c0.8,0.3,1.5,0.3,1.8,0.2c0.4-0.2,0.7-0.5,0.8-0.9
			c0.1-0.4,0.1-0.8-0.1-1.1C23.2,48.8,22.9,48.5,22.4,48.2z"/>
		<path class="st0" d="M22.7,45.1c-1.2-0.6-1.9-1.4-2.2-2.3c-0.3-1-0.2-2,0.4-3.2c0.6-1.2,1.4-1.9,2.3-2.2c1-0.3,2-0.2,3.1,0.4
			c0.8,0.4,1.4,0.9,1.8,1.5c0.4,0.5,0.6,1.2,0.6,1.8c0,0.7-0.2,1.4-0.6,2.2c-0.4,0.8-0.9,1.4-1.4,1.8c-0.5,0.4-1.1,0.6-1.9,0.6
			C24.3,45.7,23.5,45.5,22.7,45.1z M23.8,42.9c0.7,0.4,1.3,0.5,1.7,0.4c0.4-0.1,0.8-0.4,1-0.8c0.2-0.5,0.3-0.9,0.1-1.3
			c-0.2-0.4-0.7-0.8-1.4-1.2c-0.7-0.3-1.2-0.5-1.7-0.3c-0.4,0.1-0.8,0.4-1,0.9c-0.2,0.4-0.3,0.9-0.1,1.3
			C22.7,42.2,23.1,42.6,23.8,42.9z"/>
		<path class="st0" d="M27.2,30.1l1.5-1.9l3.8,2.9c0.4,0.3,0.7,0.6,0.9,1c0.2,0.4,0.4,0.8,0.4,1.2c0.1,0.4,0,0.8-0.1,1.2
			c-0.1,0.5-0.4,1-0.8,1.5c-0.2,0.3-0.5,0.6-0.8,1c-0.3,0.3-0.6,0.6-1,0.7c-0.3,0.1-0.7,0.2-1.1,0.3c-0.4,0-0.7,0-1-0.1
			c-0.5-0.2-0.9-0.4-1.2-0.6l-3.8-2.9l1.5-1.9l3.8,2.9c0.3,0.3,0.7,0.4,1,0.3c0.3,0,0.6-0.2,0.9-0.6c0.3-0.3,0.4-0.7,0.3-1
			c0-0.3-0.2-0.6-0.6-0.9L27.2,30.1z"/>
		<path class="st0" d="M29.9,26.9l5.5-5.1l1.3,1.4L34.8,25l4.1,4.4L37.1,31L33,26.6l-1.8,1.7L29.9,26.9z"/>
		<path class="st0" d="M36.7,20.9l2-1.5l4.7,6.4l-2,1.5L36.7,20.9z"/>
		<path class="st0" d="M40.6,18l2-1.1l4.7,2.4l-2.1-3.9l2-1.1l3.8,7l-2,1.1l-4.7-2.4l2.1,3.8l-2,1.1L40.6,18z"/>
		<path class="st0" d="M54.8,17l-0.5-1.6l3.6-1.2l1.1,3.2c-0.5,0.7-1,1.2-1.5,1.6c-0.5,0.3-1.1,0.6-1.8,0.9
			c-0.9,0.3-1.7,0.4-2.3,0.3c-0.7-0.1-1.3-0.4-1.8-0.9c-0.5-0.5-0.9-1.1-1.2-1.9c-0.3-0.8-0.3-1.6-0.2-2.3c0.1-0.7,0.5-1.3,1-1.9
			c0.4-0.4,1.1-0.8,1.9-1c0.8-0.3,1.5-0.4,1.9-0.4s0.9,0.1,1.3,0.4c0.4,0.2,0.7,0.6,1,1l-2.1,1.1c-0.2-0.3-0.4-0.4-0.7-0.5
			c-0.3-0.1-0.6-0.1-0.9,0.1c-0.5,0.2-0.9,0.5-1,0.9c-0.2,0.5-0.2,1.1,0.1,1.8c0.3,0.8,0.6,1.3,1,1.6c0.4,0.2,0.9,0.3,1.5,0.1
			c0.3-0.1,0.5-0.2,0.7-0.4s0.4-0.4,0.7-0.7l-0.2-0.7L54.8,17z"/>
		<path class="st0" d="M62.8,10l2.4-0.3l0.9,7.9l-2.4,0.3L62.8,10z"/>
		<path class="st0" d="M70.7,9.5l2.5,0l0.1,4.3c0,0.9-0.1,1.6-0.2,2.1c-0.2,0.5-0.5,0.9-1,1.2c-0.5,0.3-1.1,0.5-1.9,0.5
			c-0.8,0-1.4-0.1-1.9-0.3c-0.4-0.2-0.8-0.5-1-0.9c-0.2-0.4-0.4-0.9-0.5-1.5l2.3-0.4c0,0.4,0,0.6,0.1,0.8c0.1,0.2,0.2,0.3,0.3,0.4
			c0.1,0.1,0.2,0.1,0.4,0.1c0.3,0,0.5-0.1,0.6-0.3c0.1-0.2,0.2-0.6,0.2-1L70.7,9.5z"/>
		<path class="st0" d="M74.2,14.8l2.3,0.2c0,0.4,0.1,0.7,0.2,0.9c0.2,0.4,0.5,0.6,1,0.6c0.3,0.1,0.6,0,0.8-0.1
			c0.2-0.1,0.3-0.3,0.4-0.5c0-0.2,0-0.4-0.2-0.6c-0.2-0.2-0.5-0.4-1.2-0.6c-1-0.4-1.7-0.8-2.1-1.3c-0.4-0.5-0.6-1-0.5-1.6
			c0.1-0.4,0.2-0.8,0.5-1.1c0.3-0.3,0.7-0.6,1.2-0.7c0.5-0.1,1.2-0.1,2,0c1,0.1,1.7,0.4,2.2,0.9c0.5,0.5,0.7,1.1,0.7,1.9l-2.3-0.2
			c0-0.4-0.1-0.6-0.3-0.8c-0.2-0.2-0.4-0.3-0.8-0.4c-0.3,0-0.5,0-0.7,0.1c-0.2,0.1-0.3,0.2-0.3,0.4c0,0.1,0,0.2,0.1,0.4
			c0.1,0.1,0.4,0.3,0.8,0.4c1,0.4,1.8,0.7,2.2,1c0.4,0.3,0.7,0.6,0.9,1c0.2,0.4,0.2,0.8,0.1,1.2c-0.1,0.5-0.3,0.9-0.6,1.3
			c-0.3,0.4-0.8,0.6-1.3,0.8c-0.5,0.1-1.2,0.2-1.9,0.1c-1.3-0.2-2.2-0.6-2.7-1.2C74.4,16.3,74.2,15.6,74.2,14.8z"/>
		<path class="st0" d="M82,16l2.3,0.6c-0.1,0.4-0.1,0.7,0,0.9c0.1,0.4,0.4,0.6,0.9,0.8c0.3,0.1,0.6,0.1,0.8,0
			c0.2-0.1,0.4-0.3,0.4-0.5c0.1-0.2,0-0.4-0.1-0.6s-0.5-0.5-1.1-0.8c-1-0.6-1.6-1.1-1.9-1.6c-0.3-0.5-0.4-1.1-0.2-1.7
			c0.1-0.4,0.3-0.7,0.7-1c0.3-0.3,0.8-0.4,1.3-0.5c0.5-0.1,1.2,0,2,0.3c1,0.3,1.7,0.7,2,1.2s0.5,1.2,0.4,2l-2.2-0.6
			c0-0.4,0-0.6-0.1-0.9s-0.4-0.4-0.7-0.5c-0.3-0.1-0.5-0.1-0.7,0c-0.2,0.1-0.3,0.2-0.3,0.4c0,0.1,0,0.2,0.1,0.4
			c0.1,0.1,0.3,0.3,0.7,0.5c1,0.5,1.6,1,2,1.4c0.4,0.4,0.6,0.7,0.7,1.1c0.1,0.4,0.1,0.8,0,1.2c-0.2,0.5-0.4,0.9-0.8,1.2
			c-0.4,0.3-0.9,0.5-1.4,0.6c-0.5,0.1-1.2,0-1.9-0.2c-1.3-0.4-2.1-0.9-2.4-1.6C81.9,17.5,81.8,16.7,82,16z"/>
		<path class="st0" d="M92.2,13.7l5.9,2.9l-0.8,1.5l-3.7-1.8l-0.6,1.1l3.4,1.7l-0.7,1.5l-3.4-1.7l-0.7,1.4l3.8,1.9l-0.8,1.6l-6-3
			L92.2,13.7z"/>
		<path class="st0" d="M99.8,17.7l2,1.4L98.4,24l3.1,2.2l-1.1,1.6l-5.2-3.6L99.8,17.7z"/>
		<path class="st0" d="M105.6,28.7l1.1-1.2l2.7,2.6l-2.3,2.4c-0.9-0.1-1.6-0.3-2.1-0.6c-0.5-0.3-1.1-0.7-1.6-1.2
			c-0.7-0.7-1.1-1.3-1.3-1.9c-0.2-0.6-0.2-1.3,0-2c0.2-0.7,0.6-1.3,1.2-1.9c0.6-0.6,1.3-1,2-1.3c0.7-0.2,1.4-0.2,2.1,0
			c0.6,0.2,1.2,0.6,1.8,1.2c0.6,0.6,1.1,1.1,1.3,1.5c0.2,0.4,0.3,0.8,0.3,1.3c0,0.4-0.2,0.9-0.4,1.4l-2-1.3c0.1-0.3,0.2-0.6,0.1-0.8
			c-0.1-0.3-0.2-0.5-0.5-0.8c-0.4-0.4-0.8-0.5-1.3-0.5c-0.5,0-1,0.4-1.6,0.9c-0.6,0.6-0.9,1.2-0.9,1.7c0,0.5,0.2,0.9,0.6,1.3
			c0.2,0.2,0.4,0.3,0.6,0.5c0.2,0.1,0.5,0.2,0.9,0.3l0.5-0.5L105.6,28.7z"/>
		<path class="st0" d="M106.8,34l6.4-4.7l2.4,3.3c0.4,0.6,0.7,1.1,0.9,1.5s0.1,0.8,0,1.2c-0.1,0.4-0.4,0.8-0.8,1.1
			c-0.4,0.3-0.7,0.4-1.1,0.4c-0.4,0-0.7,0-1.1-0.2c-0.2-0.1-0.5-0.3-0.8-0.5c0.1,0.3,0.1,0.5,0.1,0.7c0,0.1,0,0.3-0.1,0.6
			c-0.1,0.3-0.1,0.5-0.2,0.6l-1.2,2.3l-1.6-2.2l1.2-2.5c0.2-0.3,0.2-0.6,0.2-0.7c0-0.2-0.1-0.4-0.2-0.6l-0.1-0.2l-2.6,1.9L106.8,34z
			 M112.1,33.2l0.6,0.8c0.1,0.1,0.2,0.2,0.5,0.5c0.1,0.1,0.3,0.2,0.4,0.2c0.2,0,0.3,0,0.5-0.1c0.2-0.2,0.3-0.3,0.3-0.5
			c0-0.2-0.1-0.5-0.4-0.9l-0.6-0.9L112.1,33.2z"/>
		<path class="st0" d="M114.8,38.3c1.2-0.6,2.2-0.7,3.2-0.4s1.7,1.1,2.3,2.2c0.6,1.2,0.7,2.3,0.4,3.2c-0.3,1-1,1.7-2.2,2.3
			c-0.8,0.4-1.6,0.6-2.3,0.6s-1.3-0.2-1.8-0.6s-1-1-1.4-1.8c-0.4-0.8-0.6-1.5-0.6-2.2c0-0.7,0.2-1.3,0.6-1.9
			C113.3,39.2,113.9,38.7,114.8,38.3z M115.9,40.5c-0.7,0.4-1.2,0.8-1.3,1.2c-0.2,0.4-0.2,0.9,0.1,1.3c0.2,0.5,0.6,0.8,1,0.9
			c0.4,0.1,1.1,0,1.8-0.4c0.7-0.3,1.1-0.7,1.3-1.1c0.2-0.4,0.1-0.9-0.1-1.3c-0.2-0.4-0.6-0.7-1-0.8C117.2,40,116.6,40.1,115.9,40.5z
			"/>
		<path class="st0" d="M122.7,45.7l1.9,6.3l-1.6,0.5l-1.2-3.9l-1.2,0.4l1.1,3.7l-1.5,0.5l-1.1-3.7l-1.5,0.5l1.2,4.1l-1.7,0.5l-2-6.4
			L122.7,45.7z"/>
		<path class="st0" d="M125,54.1l0.6,4c0.1,0.9,0,1.6-0.4,2.1c-0.4,0.5-0.9,0.8-1.7,0.9c-0.8,0.1-1.4,0-2-0.5s-0.8-1.1-1-2.1
			l-0.2-1.3l-2.9,0.4l-0.3-2.4L125,54.1z M122,57l0.1,0.6c0.1,0.5,0.2,0.8,0.4,1c0.2,0.2,0.4,0.2,0.7,0.2c0.2,0,0.4-0.1,0.6-0.3
			c0.1-0.2,0.2-0.5,0.1-1l-0.1-0.7L122,57z"/>
	</g>
	<g>
		<path class="st0" d="M28.4,89L22.9,92l-0.8-1.5l3.6-1.9c-0.3-0.1-0.6-0.3-0.8-0.5c-0.2-0.2-0.5-0.4-0.8-0.7l1.2-0.7
			c0.4,0.4,0.8,0.7,1.2,0.9c0.4,0.2,0.8,0.2,1.2,0.2L28.4,89z"/>
		<path class="st0" d="M25.2,93.1l1.1,1.3c-0.2,0.2-0.3,0.3-0.3,0.5c0,0.1,0,0.3,0.1,0.4c0.2,0.2,0.4,0.3,0.7,0.3
			c0.2,0,0.6-0.2,1.2-0.5c-0.3,0-0.5-0.1-0.7-0.3c-0.2-0.1-0.4-0.3-0.5-0.5c-0.3-0.5-0.4-0.9-0.3-1.5c0.1-0.5,0.4-1,0.9-1.3
			c0.3-0.2,0.7-0.4,1.1-0.4c0.4,0,0.7,0,1.1,0.2c0.3,0.2,0.6,0.5,0.9,0.9c0.3,0.5,0.5,1,0.6,1.4c0,0.4-0.1,0.9-0.3,1.3
			c-0.3,0.4-0.7,0.9-1.3,1.3c-0.9,0.6-1.7,0.9-2.4,0.8c-0.7-0.1-1.3-0.5-1.7-1.2c-0.3-0.4-0.4-0.7-0.5-1c-0.1-0.3-0.1-0.6,0-0.9
			C24.8,93.7,25,93.4,25.2,93.1z M29.2,94.2c0.3-0.2,0.4-0.4,0.5-0.6c0.1-0.2,0-0.5-0.1-0.7c-0.1-0.2-0.3-0.3-0.5-0.3
			c-0.2,0-0.5,0.1-0.8,0.2c-0.3,0.2-0.5,0.4-0.5,0.6c-0.1,0.2,0,0.4,0.1,0.6c0.1,0.2,0.3,0.3,0.6,0.3C28.7,94.4,28.9,94.4,29.2,94.2
			z"/>
		<path class="st0" d="M30.2,100.3l-2-2.3l1.1-0.9l4.8-0.1l1,1.1l-2.8,2.5l0.5,0.6l-1,0.9l-0.5-0.6l-0.9,0.7l-1-1.1L30.2,100.3z
			 M31.2,99.4l1.5-1.3l-2.5,0L31.2,99.4z"/>
		<path class="st0" d="M36.1,99.3l3,2.7l-0.9,1l-2-1.9l-0.7,0.6c0.2,0.1,0.4,0.1,0.5,0.2c0.2,0.1,0.3,0.2,0.4,0.3
			c0.4,0.4,0.7,0.9,0.7,1.4c0,0.5-0.2,1-0.5,1.4c-0.3,0.3-0.6,0.5-1,0.6c-0.4,0.1-0.8,0.1-1.2,0c-0.4-0.1-0.8-0.3-1.2-0.7
			c-0.3-0.3-0.5-0.5-0.7-0.8c-0.2-0.3-0.3-0.5-0.3-0.7s0-0.5,0-0.7c0-0.2,0.1-0.5,0.3-0.7l1.4,1c-0.2,0.2-0.2,0.4-0.2,0.7
			c0,0.2,0.1,0.4,0.3,0.5c0.2,0.2,0.4,0.2,0.6,0.2c0.2,0,0.5-0.2,0.7-0.4c0.2-0.3,0.4-0.5,0.4-0.7c0-0.2-0.1-0.4-0.3-0.6
			c-0.1-0.1-0.3-0.2-0.4-0.2c-0.1,0-0.3,0-0.5,0l-0.9-1.1L36.1,99.3z"/>
		<path class="st0" d="M51.3,108.7l6.1,2.2l-0.5,1.4c-0.7,0.3-1.3,0.6-1.9,1.1c-0.7,0.5-1.3,1.1-1.8,1.9c-0.4,0.6-0.8,1.3-1.2,2.1
			l-2.1-0.7c0.6-1.2,1.2-2.1,1.9-2.8s1.5-1.4,2.6-2.1l-3.7-1.3L51.3,108.7z"/>
		<path class="st0" d="M58.6,111.2l5.1,1l-0.4,1.7l-3.5-0.7l-0.4,1.1c0.3-0.1,0.5-0.1,0.8-0.1c0.2,0,0.5,0,0.7,0.1
			c0.8,0.2,1.4,0.5,1.8,1.1c0.4,0.6,0.5,1.2,0.4,1.9c-0.1,0.5-0.3,1-0.7,1.4c-0.3,0.4-0.8,0.7-1.3,0.8c-0.5,0.2-1.1,0.2-1.8,0
			c-0.5-0.1-0.9-0.2-1.3-0.4c-0.3-0.2-0.6-0.4-0.8-0.6c-0.2-0.2-0.4-0.5-0.5-0.8c-0.1-0.3-0.2-0.6-0.2-1l2.2,0.2
			c0,0.4,0.1,0.7,0.2,0.9c0.2,0.2,0.4,0.4,0.6,0.4c0.3,0.1,0.6,0,0.8-0.2c0.2-0.2,0.4-0.5,0.5-1c0.1-0.5,0.1-0.8-0.1-1.1
			c-0.2-0.3-0.4-0.4-0.7-0.5c-0.2,0-0.4,0-0.6,0c-0.2,0-0.3,0.1-0.6,0.3l-1.8-0.6L58.6,111.2z"/>
		<path class="st0" d="M71.5,112.6l2.5,0l0.1,4.3c0,0.9-0.1,1.6-0.2,2.1c-0.2,0.5-0.5,0.9-1,1.2c-0.5,0.3-1.1,0.5-1.9,0.5
			c-0.8,0-1.4-0.1-1.9-0.3c-0.4-0.2-0.8-0.5-1-0.9c-0.2-0.4-0.4-0.9-0.5-1.5l2.3-0.4c0,0.4,0,0.6,0.1,0.8c0.1,0.2,0.2,0.3,0.3,0.4
			c0.1,0.1,0.2,0.1,0.4,0.1c0.3,0,0.5-0.1,0.6-0.3c0.1-0.2,0.2-0.6,0.2-1L71.5,112.6z"/>
		<path class="st0" d="M80.6,118.3l-2.8,0.4l-0.2,1.4l-2.5,0.4l1.7-8.3l2.6-0.4l4.2,7.4l-2.5,0.4L80.6,118.3z M79.8,116.7l-1.3-2.7
			l-0.4,3L79.8,116.7z"/>
		<path class="st0" d="M89.4,115.9l-2.6,0.9l0.1,1.4l-2.4,0.8l0.2-8.5l2.5-0.9l5.4,6.5l-2.4,0.8L89.4,115.9z M88.3,114.4l-1.8-2.4
			l0.1,3L88.3,114.4z"/>
		<path class="st0" d="M94,115.5l-3.8-7l3.6-2c0.7-0.4,1.2-0.6,1.6-0.7s0.8,0,1.2,0.2c0.4,0.2,0.7,0.5,0.9,1
			c0.2,0.4,0.3,0.8,0.3,1.1c0,0.4-0.1,0.7-0.3,1.1c-0.1,0.2-0.3,0.4-0.6,0.7c0.3-0.1,0.5-0.1,0.7,0c0.1,0,0.3,0.1,0.5,0.2
			c0.3,0.1,0.4,0.2,0.5,0.3l2.1,1.5l-2.4,1.3l-2.3-1.5c-0.3-0.2-0.5-0.3-0.7-0.3c-0.2,0-0.4,0-0.6,0.1l-0.2,0.1l1.5,2.8L94,115.5z
			 M93.9,110.2l0.9-0.5c0.1-0.1,0.3-0.2,0.5-0.4c0.1-0.1,0.2-0.2,0.2-0.4c0-0.2,0-0.3-0.1-0.5c-0.1-0.2-0.3-0.4-0.5-0.4
			c-0.2,0-0.5,0-0.9,0.3l-0.9,0.5L93.9,110.2z"/>
		<path class="st0" d="M114.3,97.7l-3.2,3.9c-0.4-0.4-0.6-0.8-0.8-1.3c-0.2-0.5-0.2-1.3-0.2-2.3c0-0.6,0-1,0-1.3
			c-0.1-0.2-0.2-0.4-0.3-0.5c-0.1-0.1-0.3-0.2-0.5-0.1c-0.2,0-0.4,0.1-0.5,0.3c-0.1,0.2-0.2,0.3-0.2,0.5c0,0.2,0.1,0.4,0.4,0.7
			l-1.2,1.2c-0.3-0.4-0.5-0.7-0.6-1c-0.1-0.3-0.1-0.6,0-1c0.1-0.3,0.3-0.7,0.7-1.2c0.4-0.5,0.7-0.8,1-0.9c0.3-0.2,0.6-0.2,1-0.2
			c0.3,0,0.6,0.2,0.9,0.4c0.3,0.2,0.5,0.5,0.6,0.9c0.1,0.4,0.2,0.9,0.1,1.6c0,0.4-0.1,0.7-0.1,0.8c0,0.1,0,0.3,0,0.5l1.7-2.1
			L114.3,97.7z"/>
		<path class="st0" d="M112.4,95.2c-1-0.6-1.5-1.3-1.7-1.9c-0.2-0.6,0-1.3,0.5-2c0.2-0.3,0.5-0.6,0.7-0.8s0.5-0.3,0.7-0.3
			c0.2-0.1,0.4-0.1,0.6-0.1c0.2,0,0.4,0.1,0.7,0.1c0.4,0.2,0.9,0.4,1.3,0.6c0.9,0.6,1.5,1.2,1.7,1.8c0.2,0.6,0.1,1.3-0.4,2
			c-0.3,0.4-0.6,0.7-0.9,0.9c-0.3,0.2-0.7,0.3-1,0.3c-0.3,0-0.6-0.1-1-0.2S112.8,95.4,112.4,95.2z M113.3,93.8
			c0.7,0.4,1.1,0.7,1.4,0.7c0.3,0,0.5,0,0.7-0.3c0.1-0.1,0.1-0.3,0.1-0.5c0-0.2-0.1-0.4-0.3-0.5c-0.2-0.2-0.5-0.4-1-0.7
			c-0.7-0.4-1.2-0.7-1.5-0.7c-0.3,0-0.5,0.1-0.7,0.3c-0.2,0.2-0.1,0.5,0,0.7C112.2,93,112.6,93.4,113.3,93.8z"/>
		<path class="st0" d="M120.4,87.3l-2.3,4.6c-0.4-0.3-0.8-0.6-1-1.1s-0.5-1.2-0.7-2.2c-0.1-0.6-0.2-1-0.3-1.2
			c-0.1-0.2-0.2-0.4-0.4-0.4c-0.2-0.1-0.3-0.1-0.5,0c-0.2,0.1-0.3,0.2-0.4,0.4c-0.1,0.2-0.1,0.4-0.1,0.6c0.1,0.2,0.2,0.4,0.5,0.6
			l-0.9,1.5c-0.4-0.3-0.7-0.6-0.8-0.8c-0.2-0.3-0.2-0.6-0.2-0.9c0-0.4,0.2-0.8,0.4-1.3c0.3-0.5,0.5-0.9,0.8-1.2
			c0.3-0.2,0.6-0.4,0.9-0.4c0.3,0,0.7,0,1,0.2c0.3,0.2,0.6,0.4,0.8,0.8c0.2,0.3,0.4,0.9,0.5,1.6c0.1,0.4,0.1,0.7,0.1,0.8
			c0,0.1,0.1,0.3,0.1,0.5l1.2-2.4L120.4,87.3z"/>
		<path class="st0" d="M118,85.3c-1.1-0.4-1.8-0.9-2.1-1.4c-0.3-0.6-0.3-1.2,0-2c0.1-0.4,0.3-0.7,0.5-0.9c0.2-0.2,0.4-0.4,0.6-0.5
			c0.2-0.1,0.4-0.2,0.6-0.2c0.2,0,0.4,0,0.7,0c0.5,0.1,0.9,0.2,1.4,0.3c1,0.4,1.7,0.8,2.1,1.4c0.4,0.5,0.4,1.2,0,2.1
			c-0.2,0.5-0.4,0.8-0.7,1.1c-0.3,0.2-0.6,0.4-0.9,0.5c-0.3,0.1-0.6,0.1-1,0C118.8,85.6,118.4,85.4,118,85.3z M118.6,83.7
			c0.7,0.3,1.3,0.4,1.6,0.4c0.3,0,0.5-0.2,0.6-0.4c0.1-0.2,0.1-0.3,0-0.5c-0.1-0.2-0.2-0.3-0.4-0.5c-0.2-0.1-0.6-0.3-1.1-0.5
			c-0.8-0.3-1.3-0.4-1.6-0.4c-0.3,0-0.5,0.2-0.6,0.4c-0.1,0.3,0,0.5,0.2,0.7C117.4,83.2,117.8,83.4,118.6,83.7z"/>
	</g>
	<polygon class="st0" points="69,81.7 70.9,97 72.7,81.7 	"/>
	<path class="st0" d="M71.8,53.1l-0.9-19.7L70,53.1C70.6,53.1,71.2,53.1,71.8,53.1"/>
	<path class="st0" d="M70.9,59.7c-0.4,0-0.8,0-1.2,0l-0.8,17.4h4.1l-0.8-17.4C71.7,59.7,71.3,59.7,70.9,59.7"/>
	<g>
		<path class="st0" d="M91.1,31.9L91,25.4c0,0-1.2-0.3-3.5-0.7V27c-0.9-0.1-2-0.3-3.3-0.4v-2.3c-1.2-0.1-2.6-0.3-4.1-0.4v2.3
			c-1-0.1-2.1-0.2-3.3-0.2v-2.3c-1.3-0.1-2.8-0.1-4.3-0.1v2.3c-0.5,0-1.1,0-1.6,0c-0.6,0-1.2,0-1.7,0c0,0-0.1,0.3-0.1,0.5
			c-0.3,1.5-0.5,2.6-0.9,3.6c0.9,0,1.8,0,2.7,0c8,0,14.8,1,18.1,1.6l-1.5,2.4c1.6,12.3,3,16.8,3,16.8l-1.7-16.3L91.1,31.9z"/>
		<polygon class="st0" points="79.2,80.7 76.4,83.5 78.1,86.4 81.9,85.4 		"/>
		<polygon class="st0" points="73.1,81.4 76,83.1 78.7,80.3 74.1,77.7 		"/>
		<polygon class="st0" points="69.2,81.3 72.5,81.3 73.5,77.5 68.2,77.5 		"/>
		<path class="st0" d="M67.6,77.5h-7.5c-2.9,0-2.7,3.8,0,3.8h8.5L67.6,77.5z"/>
		<path class="st0" d="M67.6,77.5h-7.5c-2.9,0-2.7,3.8,0,3.8h8.5L67.6,77.5z"/>
		<path class="st0" d="M82,106V85.9l-3.8,1v19.1C79.6,106.1,80.8,106,82,106"/>
		<path class="st0" d="M66.6,77.1h1.8c-0.9-5.6-3.6-9.4-5-11.6c-2.6-4.3-10.6-16.9-2.8-26.2c7.9-9.4,6.7-7.8,8.5-15.8
			c-3.3,8.4-4.2,8.1-9.7,14.6c-8.8,10.3-3,20.4,4,31.1C65.2,71.9,66.2,74.5,66.6,77.1"/>
		<path class="st0" d="M63.2,98.7c3.9-6.7,5.4-12.3,5.6-16.9h-1.8c-0.4,7.1-4.4,13.3-7,17.8c6,2.4,11,6.7,11,6.7
			S67.1,101.7,63.2,98.7"/>
		<path class="st0" d="M92.1,61.4l-2,3.4l6.2,36.4l1.4-1.2l-5.2-35.1l2.2-2.8l-0.2-9c0,0-1.4-0.5-4.1-1v3.2
			c-1.1-0.2-2.4-0.4-3.9-0.6v-3.3c-1.4-0.2-3-0.4-4.9-0.6v3.3c-1.2-0.1-2.5-0.2-3.9-0.3v-3.2c-1.6-0.1-3.3-0.1-5.1-0.2v3.2
			c-0.6,0-1.3,0-1.9,0c-0.7,0-1.3,0-2,0v-3.2c-1.8,0-3.5,0.1-5.1,0.2v3.2c-1.4,0.1-2.6,0.2-3.9,0.3v-3.3c-0.7,0.1-1.4,0.1-2.1,0.2
			c0.4,3.1,1.6,6.2,2.8,8.7c3-0.3,6.5-0.5,10.1-0.5C80.2,59.2,88.2,60.6,92.1,61.4"/>
		<path class="st0" d="M41.1,54.1c-0.6,0-1.1,0-1.6,0.2c-8.7,1.7-10.2,9.8-7.7,14.3s12.4,9.8,12.4,9.8c-2.5-7.8,1.7-10.5,6-10.5h0
			c4,0,8.6,3.3,9.9,9.2h1.6c-1.4-6.2-6.8-10.6-10.9-10.6c-2.9,0-6,0.9-7.3,2.8c-1.2,1.6-2.1,3.1-1.7,5.7c-3.3-2-6.7-4-8.2-6.7
			c-1.2-2.1-1.6-4.9-0.5-7.3c0.9-1.8,2.7-4.2,7-5.1c0.4-0.1,0.8-0.1,1.3-0.1c3.8,0,9.1,2.7,13.7,6.7c2.4,2.1,4,4.1,5.6,6.6
			c1.5,2.3,3,5.3,3.5,7.9h1.6C63,64.7,49.4,54.1,41.1,54.1"/>
		<path class="st0" d="M64.9,81.7c-0.1,3.2-1.3,6.2-2.8,7.9c-1.6,1.8-3.3,2.8-5.4,2.8c-1.2,0-2.6-0.3-3.6-1c4.9-0.2,8.5-4.3,8.9-9.6
			h-1.5c-0.4,4.7-2.9,8.5-7.4,8.5c-0.9,0-2-0.2-3.1-0.5c1.7,2.7,4.1,3.9,6.5,3.9c4.7,0,9.5-4.6,9.8-11.8H64.9z"/>
	</g>
	<path class="st0" d="M83.4,74.3c2,0.2,3.8,0.4,5.2,0.6v-9.1c-1.5-0.3-3.3-0.5-5.2-0.8V74.3z"/>
	<path class="st0" d="M74.9,73.9c1.9,0.1,3.6,0.1,5.3,0.2v-9.5c-1.7-0.2-3.5-0.3-5.3-0.4V73.9z"/>
	<path class="st0" d="M73.6,41.7c1.5,0.1,3.1,0.1,4.6,0.2v-7.5c-1.5-0.1-3-0.2-4.6-0.2V41.7z"/>
	<path class="st0" d="M81.3,42.2c1.9,0.2,3.5,0.3,4.7,0.5v-7.5c-1.2-0.1-2.8-0.3-4.7-0.4V42.2z"/>
	<polygon class="st0" points="42.8,66.5 40,66.1 38,68.2 37.5,65.4 35,64.2 37.5,62.9 37.8,60.1 39.8,62.1 42.6,61.5 41.4,64.1 	"/>
	<polygon class="st0" points="107.5,107.6 104.7,107.2 102.8,109.3 102.3,106.5 99.7,105.3 102.2,104 102.6,101.1 104.6,103.1 
		107.4,102.6 106.1,105.1 	"/>
	<polygon class="st0" points="47.3,111.7 44.4,111.3 42.5,113.4 42,110.6 39.4,109.4 42,108 42.3,105.2 44.3,107.2 47.1,106.7 
		45.9,109.2 	"/>
</g>
</svg>
