<svg xmlns="http://www.w3.org/2000/svg" viewBox="0 0 795.5 143"><defs><style>.cls-1{fill:#35479b;}.cls-2{fill:#35499b;}.cls-3{fill:#fde62c;}</style></defs><title>IJSSELGROEP_75_TEKST</title><g id="Layer_2" data-name="Layer 2"><path class="cls-1" d="M70.87,2.63A68.87,68.87,0,1,1,2,71.5,68.95,68.95,0,0,1,70.87,2.63m0-2A70.87,70.87,0,1,0,141.73,71.5,70.87,70.87,0,0,0,70.87.63Z"/><path class="cls-2" d="M12.06,67.38l.21-2.73a2.08,2.08,0,0,0,1.05-.22,1.55,1.55,0,0,0,.74-1.18,1.44,1.44,0,0,0-.16-1,.83.83,0,0,0-1.3-.2,3.59,3.59,0,0,0-.74,1.39A6.19,6.19,0,0,1,10.37,66a2.28,2.28,0,0,1-1.89.56,2.52,2.52,0,0,1-1.29-.6,2.84,2.84,0,0,1-.82-1.38,5.83,5.83,0,0,1,0-2.32,4.71,4.71,0,0,1,1-2.6,2.86,2.86,0,0,1,2.24-.81l-.21,2.71a1.44,1.44,0,0,0-1,.32,1.47,1.47,0,0,0-.42.91,1.14,1.14,0,0,0,.11.77.67.67,0,0,0,.48.33A.51.51,0,0,0,9,63.71a2.32,2.32,0,0,0,.47-.91,12.35,12.35,0,0,1,1.19-2.56,2.89,2.89,0,0,1,1.19-1A2.59,2.59,0,0,1,13.27,59a3.07,3.07,0,0,1,1.57.72,3.1,3.1,0,0,1,.94,1.53,5.63,5.63,0,0,1,.08,2.28,4.63,4.63,0,0,1-1.36,3.13A3.65,3.65,0,0,1,12.06,67.38Z"/><path class="cls-2" d="M14.63,51.72l1.47-2.19a4.89,4.89,0,0,1,1.46,1.29,3.54,3.54,0,0,1,.62,1.62,5.19,5.19,0,0,1-.26,2.07,6,6,0,0,1-1.16,2.24,3.93,3.93,0,0,1-2,1.12,5.22,5.22,0,0,1-2.92-.17,4.86,4.86,0,0,1-3-2.23,4.62,4.62,0,0,1-.15-3.68,4.67,4.67,0,0,1,1.49-2.43,4.21,4.21,0,0,1,2.53-.78l-.21,2.59a2.33,2.33,0,0,0-.68.08,1.61,1.61,0,0,0-1.06,1.11A1.69,1.69,0,0,0,11.07,54a3.33,3.33,0,0,0,1.63.92,3.44,3.44,0,0,0,2.17.18,1.84,1.84,0,0,0,.86-2.42A2.82,2.82,0,0,0,14.63,51.72Z"/><path class="cls-2" d="M15,48.07a4.41,4.41,0,0,1-2.08-6.48A4.87,4.87,0,0,1,15.62,39a4.76,4.76,0,0,1,3.69.48,5.72,5.72,0,0,1,2.12,1.72,3.93,3.93,0,0,1,.72,2.15,5.16,5.16,0,0,1-.67,2.57A6,6,0,0,1,19.85,48a3.87,3.87,0,0,1-2.18.76A5.24,5.24,0,0,1,15,48.07Zm1.33-2.55a3.12,3.12,0,0,0,2,.46,2,2,0,0,0,1.32-2.54A3.49,3.49,0,0,0,18,42,2.94,2.94,0,0,0,16,41.59a1.81,1.81,0,0,0-1.2,1,1.7,1.7,0,0,0-.09,1.52A3.06,3.06,0,0,0,16.29,45.52Z"/><path class="cls-2" d="M20.23,30.54,22,28.27l4.4,3.37a4.69,4.69,0,0,1,1.08,1.15A3.35,3.35,0,0,1,28,34.21a3.16,3.16,0,0,1-.09,1.39,5.74,5.74,0,0,1-1,1.78c-.28.36-.61.73-1,1.12a3.85,3.85,0,0,1-1.12.84,3.27,3.27,0,0,1-1.24.29,2.83,2.83,0,0,1-1.22-.17A5.15,5.15,0,0,1,21,38.72l-4.4-3.38,1.75-2.27,4.5,3.45a1.61,1.61,0,0,0,1.2.39,1.83,1.83,0,0,0,1.43-1.85A1.6,1.6,0,0,0,24.74,34Z"/><path class="cls-2" d="M23.36,26.76l6.39-6,1.57,1.69-2.15,2L34,29.61l-2.1,2-4.78-5.13-2.15,2Z"/><path class="cls-2" d="M31.39,19.67,33.72,18l5.49,7.52-2.33,1.7Z"/><path class="cls-2" d="M35.87,16.37l2.35-1.28,5.55,2.84L41.3,13.41l2.38-1.3,4.46,8.16-2.38,1.3-5.51-2.81,2.45,4.48-2.37,1.3Z"/><path class="cls-2" d="M52.54,15.16l-.61-1.84,4.22-1.39,1.25,3.76a9.53,9.53,0,0,1-1.77,1.84,8.13,8.13,0,0,1-2.11,1,5.72,5.72,0,0,1-2.74.31,3.87,3.87,0,0,1-2.07-1.09,5.49,5.49,0,0,1-1.35-2.26,5.23,5.23,0,0,1-.23-2.71,4,4,0,0,1,1.21-2.2,6.07,6.07,0,0,1,2.27-1.23,7.48,7.48,0,0,1,2.28-.46,3,3,0,0,1,1.48.43,3.65,3.65,0,0,1,1.18,1.17l-2.47,1.34a1.49,1.49,0,0,0-.81-.58,1.85,1.85,0,0,0-1.08.06A1.89,1.89,0,0,0,50,12.44a3.14,3.14,0,0,0,.12,2.15,3.23,3.23,0,0,0,1.21,1.87,2,2,0,0,0,1.71.12,3,3,0,0,0,.83-.42,4.69,4.69,0,0,0,.8-.77l-.27-.83Z"/><path class="cls-2" d="M61.92,6.92l2.86-.33,1.07,9.24L63,16.16Z"/><path class="cls-2" d="M71.16,6.31l2.88,0,.08,5.06a7.88,7.88,0,0,1-.24,2.43,2.79,2.79,0,0,1-1.11,1.42,3.77,3.77,0,0,1-2.18.61,5.07,5.07,0,0,1-2.19-.34,2.77,2.77,0,0,1-1.22-1.1,4.24,4.24,0,0,1-.52-1.8l2.74-.42a3.11,3.11,0,0,0,.12.91,1,1,0,0,0,.35.48.73.73,0,0,0,.47.11.78.78,0,0,0,.71-.37,2.44,2.44,0,0,0,.2-1.21Z"/><path class="cls-2" d="M75.32,12.55l2.73.23a2,2,0,0,0,.21,1.06,1.53,1.53,0,0,0,1.17.74,1.38,1.38,0,0,0,1-.15.87.87,0,0,0,.43-.61.85.85,0,0,0-.22-.69,3.64,3.64,0,0,0-1.38-.75,6.07,6.07,0,0,1-2.5-1.51A2.27,2.27,0,0,1,76.19,9,2.42,2.42,0,0,1,76.8,7.7a2.75,2.75,0,0,1,1.38-.81,5.86,5.86,0,0,1,2.32,0,4.61,4.61,0,0,1,2.59,1,2.86,2.86,0,0,1,.8,2.25l-2.7-.24a1.52,1.52,0,0,0-.32-1A1.47,1.47,0,0,0,80,8.53a1.16,1.16,0,0,0-.77.1.67.67,0,0,0-.33.48.51.51,0,0,0,.15.42,2.44,2.44,0,0,0,.91.48,11.8,11.8,0,0,1,2.55,1.21,2.76,2.76,0,0,1,1,1.19,2.52,2.52,0,0,1,.17,1.42,2.9,2.9,0,0,1-.73,1.56,3.09,3.09,0,0,1-1.53.93,5.66,5.66,0,0,1-2.28.06A4.65,4.65,0,0,1,76,15,3.61,3.61,0,0,1,75.32,12.55Z"/><path class="cls-2" d="M84.36,13.93l2.67.65a2.06,2.06,0,0,0,0,1.07,1.51,1.51,0,0,0,1.05.92,1.4,1.4,0,0,0,1,0,.85.85,0,0,0,.51-.54.83.83,0,0,0-.11-.72,3.69,3.69,0,0,0-1.24-1A6.15,6.15,0,0,1,86,12.49a2.29,2.29,0,0,1-.25-2,2.57,2.57,0,0,1,.8-1.17,2.81,2.81,0,0,1,1.5-.58,5.74,5.74,0,0,1,2.29.33,4.69,4.69,0,0,1,2.4,1.44,2.9,2.9,0,0,1,.44,2.35l-2.64-.66a1.43,1.43,0,0,0-.16-1,1.4,1.4,0,0,0-.83-.56,1.11,1.11,0,0,0-.78,0,.62.62,0,0,0-.4.42.51.51,0,0,0,.08.44,2.42,2.42,0,0,0,.82.61,12.42,12.42,0,0,1,2.34,1.59,2.84,2.84,0,0,1,.82,1.34,2.55,2.55,0,0,1,0,1.42,3,3,0,0,1-1,1.43,3.13,3.13,0,0,1-1.66.69,5.62,5.62,0,0,1-2.26-.3,4.59,4.59,0,0,1-2.87-1.85A3.61,3.61,0,0,1,84.36,13.93Z"/><path class="cls-2" d="M96.3,11.34l6.91,3.41-.88,1.78L98,14.39l-.66,1.33,4,2-.84,1.7-4-2-.81,1.65,4.45,2.19-.93,1.89-7-3.47Z"/><path class="cls-2" d="M105.25,16l2.36,1.64-4,5.76L107.29,26,106,27.84l-6-4.2Z"/><path class="cls-2" d="M112,28.85l1.34-1.39,3.21,3.07-2.75,2.86a9.16,9.16,0,0,1-2.45-.7,7.92,7.92,0,0,1-1.89-1.39A5.59,5.59,0,0,1,107.9,29a3.89,3.89,0,0,1,0-2.34,5.67,5.67,0,0,1,1.36-2.25A5.53,5.53,0,0,1,111.54,23a4.14,4.14,0,0,1,2.51,0,5.93,5.93,0,0,1,2.15,1.44,7,7,0,0,1,1.48,1.8,3.07,3.07,0,0,1,.31,1.5,3.91,3.91,0,0,1-.48,1.6l-2.35-1.56a1.43,1.43,0,0,0,.14-1,1.75,1.75,0,0,0-.56-.93,1.92,1.92,0,0,0-1.54-.57,3.18,3.18,0,0,0-1.84,1.11,3.29,3.29,0,0,0-1.09,2,2,2,0,0,0,.7,1.56,2.81,2.81,0,0,0,.76.53,4.55,4.55,0,0,0,1,.36l.61-.64Z"/><path class="cls-2" d="M113.47,35.12l7.5-5.51,2.84,3.86a7.16,7.16,0,0,1,1,1.78,2.2,2.2,0,0,1,0,1.41,2.52,2.52,0,0,1-1,1.24,2.48,2.48,0,0,1-2.54.34,3.33,3.33,0,0,1-.9-.6,2.85,2.85,0,0,1,.17.81,3.09,3.09,0,0,1-.12.66,3.9,3.9,0,0,1-.23.66l-1.35,2.72L117,39.88,118.35,37a2.17,2.17,0,0,0,.27-.84,1.22,1.22,0,0,0-.25-.7l-.15-.2-3,2.24Zm6.17-.95.72,1a4,4,0,0,0,.55.54.8.8,0,0,0,.51.21.88.88,0,0,0,.54-.18.82.82,0,0,0,.39-.64,1.73,1.73,0,0,0-.44-1l-.75-1Z"/><path class="cls-2" d="M122.8,40.06a4.79,4.79,0,0,1,3.74-.45,4.72,4.72,0,0,1,2.72,2.59,4.83,4.83,0,0,1,.49,3.76,4.71,4.71,0,0,1-2.56,2.69,5.73,5.73,0,0,1-2.64.7,3.8,3.8,0,0,1-2.16-.69,5.16,5.16,0,0,1-1.68-2,6,6,0,0,1-.72-2.55,4,4,0,0,1,.67-2.21A5.3,5.3,0,0,1,122.8,40.06Zm1.28,2.58A3.15,3.15,0,0,0,122.5,44a2,2,0,0,0,1.27,2.56,3.45,3.45,0,0,0,2.17-.51,2.9,2.9,0,0,0,1.48-1.34,1.81,1.81,0,0,0-.11-1.55,1.78,1.78,0,0,0-1.17-1A3.12,3.12,0,0,0,124.08,42.64Z"/><path class="cls-2" d="M132.08,48.81l2.24,7.37-1.9.58L131,52.15l-1.42.43,1.31,4.28-1.82.55-1.3-4.28-1.76.54,1.45,4.74-2,.62-2.29-7.51Z"/><path class="cls-2" d="M134.83,58.55l.66,4.73a3.24,3.24,0,0,1-.41,2.42,2.77,2.77,0,0,1-2,1.06,2.86,2.86,0,0,1-2.3-.53,3.61,3.61,0,0,1-1.15-2.45l-.22-1.56L126,62.7l-.4-2.86ZM131.3,62l.1.7a1.69,1.69,0,0,0,.45,1.11.89.89,0,0,0,.78.23,1,1,0,0,0,.69-.39,1.56,1.56,0,0,0,.15-1.13l-.11-.81Z"/><path class="cls-2" d="M21.63,99.51,15.21,103l-1-1.78,4.21-2.25a5.61,5.61,0,0,1-1-.55,6.69,6.69,0,0,1-.93-.8L18,96.8a4.94,4.94,0,0,0,1.44,1,3.33,3.33,0,0,0,1.41.24Z"/><path class="cls-2" d="M17.85,104.34l1.33,1.49a1,1,0,0,0-.33.55.63.63,0,0,0,.11.47.84.84,0,0,0,.82.34,4.58,4.58,0,0,0,1.41-.61,2.64,2.64,0,0,1-.86-.3,2.31,2.31,0,0,1-.63-.62,2.18,2.18,0,0,1-.35-1.73,2.33,2.33,0,0,1,1-1.52,2.58,2.58,0,0,1,1.26-.46,2.16,2.16,0,0,1,1.25.26A3.2,3.2,0,0,1,24,103.27a3.4,3.4,0,0,1,.67,1.62,2.49,2.49,0,0,1-.38,1.52,4.87,4.87,0,0,1-1.52,1.53,4.15,4.15,0,0,1-2.81.93,2.92,2.92,0,0,1-2-1.35,3.81,3.81,0,0,1-.6-1.23,2.11,2.11,0,0,1,0-1A2.82,2.82,0,0,1,17.85,104.34Zm4.71,1.21a1.3,1.3,0,0,0,.58-.76A.9.9,0,0,0,23,104a.83.83,0,0,0-.62-.38,1.35,1.35,0,0,0-.88.29,1.38,1.38,0,0,0-.6.75.85.85,0,0,0,.12.74.91.91,0,0,0,.65.4A1.33,1.33,0,0,0,22.56,105.55Z"/><path class="cls-2" d="M23.78,112.67l-2.36-2.74,1.23-1.07,5.63-.07,1.13,1.31L26.08,113l.59.68-1.17,1-.58-.68-1,.87-1.13-1.31Zm1.17-1,1.71-1.48-3,0Z"/><path class="cls-2" d="M30.68,111.58l3.46,3.22L33.06,116l-2.35-2.18-.85.67a4.12,4.12,0,0,1,.64.28,2.48,2.48,0,0,1,.52.38,2.4,2.4,0,0,1,.83,1.66,2.13,2.13,0,0,1-.62,1.65,2.78,2.78,0,0,1-1.16.75,2.41,2.41,0,0,1-1.38,0,3.49,3.49,0,0,1-1.41-.86,4.55,4.55,0,0,1-.8-.92,2.41,2.41,0,0,1-.36-.88,2.58,2.58,0,0,1,0-.83,3.16,3.16,0,0,1,.31-.87L28,116.07a1.23,1.23,0,0,0-.25.77.92.92,0,0,0,.3.62.85.85,0,0,0,.71.24,1.37,1.37,0,0,0,.84-.51,1.34,1.34,0,0,0,.44-.87.93.93,0,0,0-.33-.71,1.18,1.18,0,0,0-.5-.28,1.73,1.73,0,0,0-.58,0L27.6,114Z"/><path class="cls-2" d="M48.47,122.59l7.1,2.56L55,126.79a9.06,9.06,0,0,0-2.2,1.25,11,11,0,0,0-2.14,2.21,13.32,13.32,0,0,0-1.43,2.5l-2.42-.88A15.06,15.06,0,0,1,49,128.6a14.7,14.7,0,0,1,3.07-2.4l-4.32-1.56Z"/><path class="cls-2" d="M57,125.47l6,1.23-.41,2-4.08-.83L58,129.21a4.67,4.67,0,0,1,.89-.13,3.86,3.86,0,0,1,.84.07,3.11,3.11,0,0,1,2.05,1.28,2.83,2.83,0,0,1,.43,2.26,3.58,3.58,0,0,1-.79,1.61,3.07,3.07,0,0,1-1.49,1,4.55,4.55,0,0,1-2.15,0,6.53,6.53,0,0,1-1.51-.49,3.19,3.19,0,0,1-1-.73,3.15,3.15,0,0,1-.58-.92,4.15,4.15,0,0,1-.25-1.17l2.62.25a1.56,1.56,0,0,0,.25,1,1.18,1.18,0,0,0,.75.49,1.12,1.12,0,0,0,.95-.22,1.82,1.82,0,0,0,.59-1.13,1.79,1.79,0,0,0-.1-1.27,1.2,1.2,0,0,0-.85-.56,1.47,1.47,0,0,0-.75,0,2.06,2.06,0,0,0-.65.36l-2.1-.75Z"/><path class="cls-2" d="M72.11,127.14l2.88,0,.08,5.06a7.78,7.78,0,0,1-.24,2.42A2.77,2.77,0,0,1,73.72,136a3.85,3.85,0,0,1-2.18.61,5.07,5.07,0,0,1-2.19-.34,2.74,2.74,0,0,1-1.21-1.1,4.11,4.11,0,0,1-.53-1.8l2.74-.42a3.16,3.16,0,0,0,.12.91,1,1,0,0,0,.35.48.76.76,0,0,0,.48.11.77.77,0,0,0,.7-.37,2.44,2.44,0,0,0,.2-1.21Z"/><path class="cls-2" d="M82.8,133.83l-3.22.53-.2,1.59-2.9.47,2-9.75,3.1-.5,5,8.62-3,.48Zm-.91-1.89-1.55-3.14-.47,3.47Z"/><path class="cls-2" d="M93.05,131,90,132l.07,1.6-2.78,1,.29-9.94,3-1,6.32,7.67-2.85,1Zm-1.21-1.71-2.06-2.83.12,3.49Z"/><path class="cls-2" d="M98.41,130.52,94,122.34l4.21-2.29a7,7,0,0,1,1.9-.77,2.2,2.2,0,0,1,1.4.2,2.87,2.87,0,0,1,1.45,2.45,2.62,2.62,0,0,1-.36,1.24,3.73,3.73,0,0,1-.71.8,2.76,2.76,0,0,1,.82,0,2.64,2.64,0,0,1,.64.2,4.4,4.4,0,0,1,.63.32l2.51,1.7-2.86,1.56-2.71-1.77a2.19,2.19,0,0,0-.8-.38,1.22,1.22,0,0,0-.72.15l-.22.12,1.8,3.32Zm-.11-6.24,1.06-.58a4.29,4.29,0,0,0,.61-.48.73.73,0,0,0,.27-.48.86.86,0,0,0-.1-.56.84.84,0,0,0-.58-.47,1.74,1.74,0,0,0-1.06.3l-1.11.61Z"/><path class="cls-2" d="M122.26,109.71l-3.79,4.61a3.73,3.73,0,0,1-.89-1.53,8.45,8.45,0,0,1-.18-2.68,5.53,5.53,0,0,0-.06-1.49A1.07,1.07,0,0,0,117,108a.71.71,0,0,0-.58-.17.92.92,0,0,0-.78,1,1.53,1.53,0,0,0,.45.78L114.7,111a3.23,3.23,0,0,1-.74-1.16,2,2,0,0,1,0-1.14,4,4,0,0,1,.81-1.38,4.4,4.4,0,0,1,1.22-1.11,2,2,0,0,1,1.15-.25,2,2,0,0,1,1.07.45,2.23,2.23,0,0,1,.72,1.09,5.15,5.15,0,0,1,.13,1.91q-.06.72-.06,1c0,.17,0,.39,0,.64l2-2.4Z"/><path class="cls-2" d="M120,106.73a4.28,4.28,0,0,1-2-2.18,2.85,2.85,0,0,1,.54-2.32,3.38,3.38,0,0,1,.79-.89,2.17,2.17,0,0,1,1.56-.44,2.83,2.83,0,0,1,.76.17,6.82,6.82,0,0,1,1.51.74,4.84,4.84,0,0,1,2,2.11,2.61,2.61,0,0,1-.48,2.4,3.17,3.17,0,0,1-1,1.06,2.4,2.4,0,0,1-1.21.31,3.22,3.22,0,0,1-1.13-.26A7.28,7.28,0,0,1,120,106.73Zm1.08-1.65a4.85,4.85,0,0,0,1.7.81.74.74,0,0,0,.91-.87,1.33,1.33,0,0,0-.38-.64,7.68,7.68,0,0,0-1.15-.87,5.22,5.22,0,0,0-1.73-.84.78.78,0,0,0-.81.34.74.74,0,0,0,0,.87A5.18,5.18,0,0,0,121.05,105.08Z"/><path class="cls-2" d="M129.42,97.52l-2.68,5.33a3.69,3.69,0,0,1-1.21-1.3,8.55,8.55,0,0,1-.76-2.57,6,6,0,0,0-.38-1.44,1.11,1.11,0,0,0-.46-.51.76.76,0,0,0-.61,0,.93.93,0,0,0-.55,1.1,1.48,1.48,0,0,0,.61.67l-1,1.71a3.34,3.34,0,0,1-1-1,2,2,0,0,1-.24-1.12,4,4,0,0,1,.48-1.52,4.43,4.43,0,0,1,1-1.35,2,2,0,0,1,2.21-.29,2.28,2.28,0,0,1,.94.91,5.19,5.19,0,0,1,.54,1.83c.07.48.12.81.16,1s.1.38.18.62L128,96.8Z"/><path class="cls-2" d="M126.54,95.13a4.32,4.32,0,0,1-2.43-1.68,2.88,2.88,0,0,1,0-2.39,3.22,3.22,0,0,1,.58-1,2.17,2.17,0,0,1,.69-.55,2.64,2.64,0,0,1,.73-.22,3.38,3.38,0,0,1,.78,0,6.54,6.54,0,0,1,1.64.4A4.83,4.83,0,0,1,131,91.25a2.63,2.63,0,0,1,.06,2.44,3.21,3.21,0,0,1-.78,1.27,2.34,2.34,0,0,1-1.11.56,3.15,3.15,0,0,1-1.15,0A7.3,7.3,0,0,1,126.54,95.13Zm.69-1.85a4.64,4.64,0,0,0,1.83.42.73.73,0,0,0,.71-.48.72.72,0,0,0,0-.56,1.32,1.32,0,0,0-.52-.54,6.27,6.27,0,0,0-1.3-.6,5,5,0,0,0-1.88-.44.79.79,0,0,0-.72.51.74.74,0,0,0,.22.84A5.36,5.36,0,0,0,127.23,93.28Z"/><polygon class="cls-3" points="69.22 90.98 71.38 108.8 73.54 90.98 69.22 90.98"/><path class="cls-3" d="M72.45,57.45,71.38,34.33,70.31,57.45c.71,0,1.43,0,2.14,0"/><path class="cls-3" d="M71.38,65.15H70L69,85.49h4.74l-.94-20.33H71.38"/><path class="cls-2" d="M95.12,32.6,94.93,25a41.47,41.47,0,0,0-4.11-.83v2.7c-1.09-.17-2.38-.34-3.85-.51V23.63c-1.43-.17-3-.33-4.83-.47V25.9c-1.22-.09-2.5-.18-3.86-.24V22.92c-1.57-.07-3.25-.12-5-.14V25.5l-1.91,0-2,0s-.08.34-.13.6a33.5,33.5,0,0,1-1,4.19c1,0,2-.05,3.11-.05A125.57,125.57,0,0,1,92.51,32.1L90.8,34.87c1.88,14.44,3.53,19.72,3.53,19.72l-2-19.07Z"/><polygon class="cls-2" points="81.11 89.81 77.88 93.05 79.82 96.41 84.23 95.23 81.11 89.81"/><polygon class="cls-2" points="74.01 90.62 77.36 92.56 80.6 89.33 75.19 86.2 74.01 90.62"/><polygon class="cls-2" points="69.45 90.44 73.32 90.44 74.5 86.03 68.27 86.03 69.45 90.44"/><path class="cls-2" d="M67.53,86H58.71a2.22,2.22,0,1,0,0,4.42h10Z"/><path class="cls-2" d="M67.53,86H58.71a2.22,2.22,0,1,0,0,4.42h10Z"/><path class="cls-2" d="M84.44,119.4V95.9L80,97.09v22.42c1.52,0,3-.06,4.42-.11"/><path class="cls-2" d="M66.4,85.49h2.16c-1-6.61-4.27-11-5.84-13.54-3.06-5-12.41-19.83-3.29-30.65,9.29-11,7.81-9.11,9.95-18.52-3.82,9.87-4.94,9.5-11.41,17.07C47.64,52,54.5,63.73,62.65,76.31a25.27,25.27,0,0,1,3.75,9.18"/><path class="cls-2" d="M62.34,110.79C66.91,103,68.65,96.4,68.87,91H66.75c-.45,8.36-5.13,15.62-8.24,20.81a52.82,52.82,0,0,1,12.87,7.81,68.19,68.19,0,0,0-9-8.81"/><path class="cls-2" d="M96.25,67.16l-2.35,4,7.31,42.61,1.67-1.47L96.81,71.19l2.61-3.3-.23-10.58a45.16,45.16,0,0,0-4.83-1.15v3.76c-1.28-.23-2.8-.47-4.53-.71V55.4c-1.67-.24-3.57-.46-5.68-.65v3.81c-1.43-.13-2.94-.25-4.53-.34v-3.8c-1.86-.1-3.84-.18-5.94-.21V58l-2.25,0-2.28,0V54.22q-3.16,0-5.94.21v3.79c-1.59.09-3.11.21-4.53.34v-3.8c-.85.07-1.67.16-2.44.24a34.08,34.08,0,0,0,3.29,10.21c3.57-.35,7.57-.59,11.85-.59a126.07,126.07,0,0,1,24.87,2.54"/><path class="cls-2" d="M36.48,58.65a9.75,9.75,0,0,0-1.91.18c-10.14,2-11.92,11.51-9.06,16.71S40.07,87.05,40.07,87.05C37.16,78,42,74.7,47.14,74.7h0c4.67,0,10.09,3.9,11.62,10.79H60.6C59,78.19,52.7,73.07,47.81,73.06c-3.37,0-7,1.08-8.59,3.3-1.42,1.93-2.47,3.58-2,6.63-3.9-2.37-7.89-4.74-9.6-7.84a9.65,9.65,0,0,1-.56-8.58c1-2.16,3.2-4.93,8.18-5.92a6.69,6.69,0,0,1,1.51-.1c4.46,0,10.61,3.18,16,7.9a35,35,0,0,1,6.57,7.75,29.09,29.09,0,0,1,4.08,9.29h1.91C62.21,71,46.19,58.65,36.48,58.65"/><path class="cls-2" d="M64.34,91A15.26,15.26,0,0,1,61,100.2c-1.85,2.07-3.92,3.26-6.29,3.26a8,8,0,0,1-4.21-1.19c5.71-.23,10-5,10.39-11.29H59.15c-.43,5.48-3.34,9.91-8.7,9.91a12.51,12.51,0,0,1-3.63-.59,8.87,8.87,0,0,0,7.57,4.54c5.49,0,11.16-5.33,11.44-13.86Z"/><path class="cls-3" d="M86.05,82.32c2.37.21,4.44.45,6.15.67V72.29c-1.77-.3-3.86-.63-6.15-.93Z"/><path class="cls-3" d="M76,81.74q3.3.09,6.19.29V70.89c-2-.22-4.11-.4-6.19-.52Z"/><path class="cls-3" d="M74.61,44.05c1.81.07,3.64.17,5.38.29V35.59c-1.72-.11-3.54-.19-5.38-.24Z"/><path class="cls-3" d="M83.64,44.63c2.19.19,4.1.4,5.48.56V36.36c-1.37-.15-3.27-.34-5.48-.52Z"/><polygon class="cls-3" points="38.45 73.17 35.15 72.7 32.89 75.15 32.33 71.86 29.3 70.47 32.25 68.91 32.64 65.6 35.03 67.93 38.3 67.28 36.82 70.27 38.45 73.17"/><polygon class="cls-3" points="114.3 121.29 111 120.81 108.73 123.26 108.17 119.97 105.14 118.58 108.09 117.03 108.48 113.72 110.87 116.04 114.14 115.39 112.67 118.38 114.3 121.29"/><polygon class="cls-3" points="43.71 126.06 40.41 125.58 38.15 128.03 37.58 124.75 34.55 123.35 37.5 121.8 37.9 118.49 40.28 120.81 43.55 120.16 42.08 123.15 43.71 126.06"/><path class="cls-2" d="M209.36,79.29a4.17,4.17,0,0,0-.8-2.66,5.9,5.9,0,0,0-2.2-1.66,16,16,0,0,0-3.11-1c-1.15-.27-2.35-.53-3.62-.79a46.6,46.6,0,0,1-4.8-1.3,13.64,13.64,0,0,1-4-2.1,9.53,9.53,0,0,1-2.77-3.4,11.43,11.43,0,0,1-1-5.16,13.75,13.75,0,0,1,1.19-5.94A11.64,11.64,0,0,1,191.43,51a13.68,13.68,0,0,1,4.8-2.48,21.6,21.6,0,0,1,6.2-.82,36.31,36.31,0,0,1,6.93.67,30.35,30.35,0,0,1,6,1.74v6.77A37,37,0,0,0,208.93,55a31.16,31.16,0,0,0-5.79-.59,10.7,10.7,0,0,0-6,1.42A4.76,4.76,0,0,0,195,60.08a4.91,4.91,0,0,0,.69,2.71,5.41,5.41,0,0,0,1.89,1.75,11,11,0,0,0,2.74,1.11c1,.28,2.12.54,3.29.78,1.82.38,3.57.83,5.23,1.33a15.41,15.41,0,0,1,4.43,2.12,9.53,9.53,0,0,1,3.06,3.53A11.89,11.89,0,0,1,217.48,79a13.21,13.21,0,0,1-1.29,6,11.3,11.3,0,0,1-3.65,4.21,16.83,16.83,0,0,1-5.76,2.46,31.75,31.75,0,0,1-7.41.81,33.89,33.89,0,0,1-6.91-.7,19.69,19.69,0,0,1-5.66-2V83.15a31.66,31.66,0,0,0,6.22,2,30.67,30.67,0,0,0,6.25.63,22.38,22.38,0,0,0,3.68-.31,10.82,10.82,0,0,0,3.24-1,6.14,6.14,0,0,0,2.3-2A5.45,5.45,0,0,0,209.36,79.29Z"/><path class="cls-2" d="M247.78,91a19.2,19.2,0,0,1-3.55,1,21.7,21.7,0,0,1-4.41.44,20.17,20.17,0,0,1-6.32-1,14.13,14.13,0,0,1-5.12-2.93,13.39,13.39,0,0,1-3.45-5,18.17,18.17,0,0,1-1.26-7,18.73,18.73,0,0,1,1.45-7.74,14.65,14.65,0,0,1,8.94-8.2,18.25,18.25,0,0,1,5.69-1,21.12,21.12,0,0,1,4,.37,18.59,18.59,0,0,1,3.51,1v6.22a17.69,17.69,0,0,0-3-1,15.61,15.61,0,0,0-3.43-.37,10.87,10.87,0,0,0-3.52.57,8,8,0,0,0-3,1.78,8.63,8.63,0,0,0-2.05,3.24,14,14,0,0,0-.75,4.85,12.67,12.67,0,0,0,.58,3.89,8.72,8.72,0,0,0,1.69,3.11,8,8,0,0,0,2.83,2.07,9.67,9.67,0,0,0,4.08.79,15.92,15.92,0,0,0,3.8-.41,23.49,23.49,0,0,0,3.23-1Z"/><path class="cls-2" d="M284.16,76.06a19.64,19.64,0,0,1-1.1,6.71A14.62,14.62,0,0,1,279.92,88,13.91,13.91,0,0,1,275,91.29a17.14,17.14,0,0,1-6.47,1.18,17.55,17.55,0,0,1-6.59-1.18A13.73,13.73,0,0,1,257,88a14.7,14.7,0,0,1-3.11-5.19,19.88,19.88,0,0,1-1.08-6.71,19.58,19.58,0,0,1,1.1-6.7A14.62,14.62,0,0,1,257,64.17,13.78,13.78,0,0,1,262,60.84a17,17,0,0,1,6.47-1.18A17.36,17.36,0,0,1,275,60.84a13.61,13.61,0,0,1,5,3.33,14.7,14.7,0,0,1,3.11,5.19A19.82,19.82,0,0,1,284.16,76.06Zm-7.9,0a14.94,14.94,0,0,0-.58-4.38,9.29,9.29,0,0,0-1.61-3.19,6.53,6.53,0,0,0-2.48-1.93,7.7,7.7,0,0,0-3.16-.65,7.53,7.53,0,0,0-3.11.65,6.55,6.55,0,0,0-2.46,1.93,9.29,9.29,0,0,0-1.61,3.19,16.87,16.87,0,0,0,0,8.77,9,9,0,0,0,1.62,3.17,7,7,0,0,0,2.48,1.93,7.32,7.32,0,0,0,3.15.66,7.12,7.12,0,0,0,3.12-.66,6.8,6.8,0,0,0,2.45-1.93,9.19,9.19,0,0,0,1.61-3.17A15,15,0,0,0,276.26,76.06Z"/><path class="cls-2" d="M304.72,92.47a17,17,0,0,1-7.8-1.6,11.16,11.16,0,0,1-4.67-4.3A11.57,11.57,0,0,1,291,83.38a17.08,17.08,0,0,1-.41-3.87V60.43h7.64V78.71a14.23,14.23,0,0,0,.23,2.72,7.08,7.08,0,0,0,.67,2,4.88,4.88,0,0,0,2.2,2.11,7.63,7.63,0,0,0,3.38.69,7.45,7.45,0,0,0,3.53-.77,5,5,0,0,0,2.21-2.35,9.86,9.86,0,0,0,.74-4.22V60.43h7.63V79.51a14.08,14.08,0,0,1-1.32,6.41,10.77,10.77,0,0,1-1.91,2.7,11.55,11.55,0,0,1-2.77,2.06A14.67,14.67,0,0,1,309.22,92,20.12,20.12,0,0,1,304.72,92.47Z"/><path class="cls-2" d="M346,91.63a19,19,0,0,1-3.08.61,26.78,26.78,0,0,1-3.33.23,14.12,14.12,0,0,1-6.43-1.28,7.24,7.24,0,0,1-3.53-3.65,11.81,11.81,0,0,1-.74-4.64V66.72H323V60.43h5.84V51.7h7.64v8.73h9v6.29h-9V81.9a5.18,5.18,0,0,0,.54,2.67c.65,1,1.93,1.48,3.84,1.48a16.43,16.43,0,0,0,2.62-.21,19.53,19.53,0,0,0,2.47-.53Z"/><path class="cls-2" d="M351.93,45h8v8.28h-8Zm.2,15.43h7.63V91.66h-7.63Z"/><path class="cls-2" d="M375.36,64.78h.13a11.78,11.78,0,0,1,1.71-1.9,11.57,11.57,0,0,1,2.35-1.64,14.44,14.44,0,0,1,2.92-1.15,13.25,13.25,0,0,1,3.4-.43,13.86,13.86,0,0,1,3.3.39,9.93,9.93,0,0,1,2.92,1.2,8.86,8.86,0,0,1,2.33,2.13,10,10,0,0,1,1.6,3.11,10.27,10.27,0,0,1,.43,2.18,27.06,27.06,0,0,1,.12,2.72V91.66h-7.64V72.58a19.36,19.36,0,0,0-.1-2.16,6.35,6.35,0,0,0-.35-1.58,4,4,0,0,0-1.76-2.12,5.83,5.83,0,0,0-2.85-.65,9.23,9.23,0,0,0-4.27,1.05,11,11,0,0,0-3.63,3V91.66h-7.64V60.43h6.32Z"/><path class="cls-2" d="M425.21,92.47c0-.43,0-1,0-1.6s0-1.16.08-1.59h-.06a17.69,17.69,0,0,1-1.63,1.14,14.54,14.54,0,0,1-2,1,13.58,13.58,0,0,1-5.13,1,13.78,13.78,0,0,1-4.85-.89,11.12,11.12,0,0,1-4.2-2.8,14.17,14.17,0,0,1-3-4.92,20.57,20.57,0,0,1-1.13-7.22,21.56,21.56,0,0,1,1.15-7.39,15.76,15.76,0,0,1,3-5.3,12.66,12.66,0,0,1,4.37-3.21A12.49,12.49,0,0,1,417,59.66a10.48,10.48,0,0,1,5.1,1.21A11.17,11.17,0,0,1,425.7,64h.13l.32-3.52h6.7V92.24A21.37,21.37,0,0,1,432.4,97a12.59,12.59,0,0,1-1.32,3.48,11.43,11.43,0,0,1-2.63,3.09,14.5,14.5,0,0,1-3.64,2.19,20.65,20.65,0,0,1-4.49,1.31,29.79,29.79,0,0,1-5.19.43c-1,0-2,0-3-.11s-1.92-.18-2.79-.32-1.66-.3-2.38-.49a15.56,15.56,0,0,1-1.82-.56V99.75a28.22,28.22,0,0,0,4.46,1.08,31,31,0,0,0,4.91.37q5.13,0,7.93-2a6.87,6.87,0,0,0,2.8-6Zm-6.83-6.09a8.11,8.11,0,0,0,2.19-.29A10.21,10.21,0,0,0,424,84.35a9,9,0,0,0,1.17-1.1v-14a10,10,0,0,0-3-2.42,8.26,8.26,0,0,0-3.84-1,6.8,6.8,0,0,0-1.5.18,5.66,5.66,0,0,0-1.59.63,6.51,6.51,0,0,0-1.53,1.2,7.3,7.3,0,0,0-1.28,1.92,12.55,12.55,0,0,0-.88,2.77,20.3,20.3,0,0,0,.11,8A9.35,9.35,0,0,0,413,83.68a6,6,0,0,0,2.24,2A6.57,6.57,0,0,0,418.38,86.38Z"/><path class="cls-2" d="M455.8,91.66V48.54h7.89V91.66Z"/><path class="cls-2" d="M482.51,48.54h7.9V80.41a18.44,18.44,0,0,1-.31,3.66,9.67,9.67,0,0,1-.92,2.69,8.86,8.86,0,0,1-2,2.63,10.73,10.73,0,0,1-2.77,1.77,13.63,13.63,0,0,1-3.32,1,22.08,22.08,0,0,1-7.49,0,15,15,0,0,1-3.11-.83V84.57a16.15,16.15,0,0,0,3,.9,15.85,15.85,0,0,0,3.19.33,6,6,0,0,0,4.45-1.42,5.78,5.78,0,0,0,1.38-4.19Z"/><path class="cls-2" d="M513.42,82.61a2.44,2.44,0,0,0-.56-1.65,4.52,4.52,0,0,0-1.5-1.08,12.82,12.82,0,0,0-2.15-.75c-.8-.22-1.65-.43-2.53-.65a31.92,31.92,0,0,1-3.22-1,9.66,9.66,0,0,1-2.72-1.56,6.77,6.77,0,0,1-1.87-2.43,8.44,8.44,0,0,1-.69-3.6,10.21,10.21,0,0,1,.93-4.52,9,9,0,0,1,2.53-3.18,10.72,10.72,0,0,1,3.71-1.87,15.81,15.81,0,0,1,4.46-.61,29.52,29.52,0,0,1,5.38.47,27.79,27.79,0,0,1,4.55,1.21v6.22c-.71-.24-1.46-.46-2.24-.66s-1.58-.39-2.39-.54-1.61-.27-2.4-.37a20.13,20.13,0,0,0-2.26-.14,8.32,8.32,0,0,0-2.28.26,4.47,4.47,0,0,0-1.52.69,2.64,2.64,0,0,0-.84,1,2.8,2.8,0,0,0-.25,1.17,2.6,2.6,0,0,0,.56,1.74,4,4,0,0,0,1.56,1.1,14.34,14.34,0,0,0,2.1.69l2.12.53c1.08.26,2.15.57,3.23.94A9.93,9.93,0,0,1,518,75.5a7.58,7.58,0,0,1,2.11,2.55,8.46,8.46,0,0,1,.82,4,10,10,0,0,1-1,4.6,9.19,9.19,0,0,1-2.79,3.28,12.46,12.46,0,0,1-4.28,1.93,22.51,22.51,0,0,1-5.5.63,27.81,27.81,0,0,1-5.33-.47,17.31,17.31,0,0,1-3.92-1.18V84.67a24.51,24.51,0,0,0,4.64,1.27,24.85,24.85,0,0,0,4,.34,15.7,15.7,0,0,0,2.64-.21,7.38,7.38,0,0,0,2.11-.66,3.82,3.82,0,0,0,1.4-1.15A2.64,2.64,0,0,0,513.42,82.61Z"/><path class="cls-2" d="M541.39,82.61a2.44,2.44,0,0,0-.56-1.65,4.52,4.52,0,0,0-1.5-1.08,12.69,12.69,0,0,0-2.14-.75c-.81-.22-1.65-.43-2.53-.65a31.3,31.3,0,0,1-3.23-1,9.66,9.66,0,0,1-2.72-1.56,6.88,6.88,0,0,1-1.87-2.43,8.44,8.44,0,0,1-.69-3.6,10.21,10.21,0,0,1,.93-4.52,9.13,9.13,0,0,1,2.53-3.18,10.81,10.81,0,0,1,3.71-1.87,15.86,15.86,0,0,1,4.46-.61,29.52,29.52,0,0,1,5.38.47,27.79,27.79,0,0,1,4.55,1.21v6.22c-.71-.24-1.46-.46-2.24-.66s-1.58-.39-2.39-.54-1.6-.27-2.4-.37a20,20,0,0,0-2.25-.14,8.35,8.35,0,0,0-2.29.26,4.56,4.56,0,0,0-1.52.69,2.61,2.61,0,0,0-.83,1,2.89,2.89,0,0,0,.3,2.91,4,4,0,0,0,1.57,1.1,13.83,13.83,0,0,0,2.09.69l2.13.53c1.07.26,2.15.57,3.22.94A9.93,9.93,0,0,1,546,75.5a7.58,7.58,0,0,1,2.11,2.55,8.46,8.46,0,0,1,.82,4,10,10,0,0,1-1,4.6,9.16,9.16,0,0,1-2.78,3.28,12.6,12.6,0,0,1-4.29,1.93,22.49,22.49,0,0,1-5.49.63A27.85,27.85,0,0,1,530,92a17.21,17.21,0,0,1-3.91-1.18V84.67a24.11,24.11,0,0,0,4.64,1.27,24.73,24.73,0,0,0,4,.34,15.53,15.53,0,0,0,2.64-.21,7.38,7.38,0,0,0,2.11-.66,3.94,3.94,0,0,0,1.41-1.15A2.7,2.7,0,0,0,541.39,82.61Z"/><path class="cls-2" d="M571.62,86.31a25.36,25.36,0,0,0,4.64-.45,35.89,35.89,0,0,0,4.9-1.29v6.09a23,23,0,0,1-4.54,1.23,34.72,34.72,0,0,1-6.35.58,22.67,22.67,0,0,1-6.3-.86,13.65,13.65,0,0,1-5.21-2.75,13.3,13.3,0,0,1-3.53-4.93,18.55,18.55,0,0,1-1.3-7.35,20.89,20.89,0,0,1,1.22-7.45,15.21,15.21,0,0,1,3.29-5.28,13.47,13.47,0,0,1,4.72-3.14,14.81,14.81,0,0,1,5.5-1.05,16,16,0,0,1,5.46.9,11,11,0,0,1,4.32,2.84,13.22,13.22,0,0,1,2.83,5,22.73,22.73,0,0,1,1,7.2c0,1.07-.06,2-.1,2.74H561.73a9.35,9.35,0,0,0,1,3.69,7.1,7.1,0,0,0,2.11,2.48,8.61,8.61,0,0,0,3.05,1.39A15.54,15.54,0,0,0,571.62,86.31Zm-3.06-20.69a6,6,0,0,0-2.58.53,6.21,6.21,0,0,0-2,1.45,7.06,7.06,0,0,0-1.3,2.15,10,10,0,0,0-.65,2.61h12.28a8.81,8.81,0,0,0-.37-2.61,6.43,6.43,0,0,0-1.1-2.15,5.22,5.22,0,0,0-1.8-1.45A5.72,5.72,0,0,0,568.56,65.62Z"/><path class="cls-2" d="M589.7,91.66V45h7.64V91.66Z"/><path class="cls-2" d="M626.31,92.47c0-.43,0-1,0-1.6a14,14,0,0,1,.08-1.59h-.07a15.32,15.32,0,0,1-1.63,1.14,14.54,14.54,0,0,1-2,1,13.58,13.58,0,0,1-5.12,1,13.7,13.7,0,0,1-4.85-.89,11.15,11.15,0,0,1-4.21-2.8,14.33,14.33,0,0,1-3-4.92,20.59,20.59,0,0,1-1.12-7.22,21.82,21.82,0,0,1,1.14-7.39,15.77,15.77,0,0,1,3-5.3,12.57,12.57,0,0,1,9.44-4.29,10.44,10.44,0,0,1,5.09,1.21A11.07,11.07,0,0,1,626.79,64h.13l.32-3.52H634V92.24A21.37,21.37,0,0,1,633.5,97a12.93,12.93,0,0,1-1.33,3.48,11.4,11.4,0,0,1-2.62,3.09,14.87,14.87,0,0,1-3.64,2.19,20.9,20.9,0,0,1-4.5,1.31,29.63,29.63,0,0,1-5.19.43c-1,0-2,0-3-.11s-1.92-.18-2.78-.32-1.67-.3-2.39-.49a15.56,15.56,0,0,1-1.82-.56V99.75a28.49,28.49,0,0,0,4.46,1.08,31.09,31.09,0,0,0,4.92.37c3.41,0,6.06-.66,7.92-2a6.88,6.88,0,0,0,2.81-6Zm-6.83-6.09a8.21,8.21,0,0,0,2.19-.29,9.77,9.77,0,0,0,1.9-.75,9.91,9.91,0,0,0,1.56-1,9.08,9.08,0,0,0,1.18-1.1v-14a10.22,10.22,0,0,0-3-2.42,8.2,8.2,0,0,0-3.84-1,6.65,6.65,0,0,0-1.49.18,5.72,5.72,0,0,0-1.6.63,6.51,6.51,0,0,0-1.53,1.2,7.28,7.28,0,0,0-1.27,1.92,12.53,12.53,0,0,0-.89,2.77,20.3,20.3,0,0,0,.11,8,9.35,9.35,0,0,0,1.36,3.15,6,6,0,0,0,2.24,2A6.55,6.55,0,0,0,619.48,86.38Z"/><path class="cls-2" d="M660.89,66.49h-.65a16.72,16.72,0,0,0-6.17,1.05A8.62,8.62,0,0,0,650,70.75V91.66h-7.63V60.43h6.31l.71,4.35h.13A9.85,9.85,0,0,1,653.2,61a11.23,11.23,0,0,1,5.69-1.37,12.89,12.89,0,0,1,2,.13Z"/><path class="cls-2" d="M695.18,76.06a19.64,19.64,0,0,1-1.1,6.71A14.77,14.77,0,0,1,690.94,88a14,14,0,0,1-5,3.33,17.16,17.16,0,0,1-6.48,1.18,17.63,17.63,0,0,1-6.59-1.18A13.78,13.78,0,0,1,668,88a14.56,14.56,0,0,1-3.11-5.19,19.88,19.88,0,0,1-1.08-6.71,19.58,19.58,0,0,1,1.09-6.7A14.64,14.64,0,0,1,668,64.17,13.82,13.82,0,0,1,673,60.84a17,17,0,0,1,6.48-1.18A17.36,17.36,0,0,1,686,60.84a13.78,13.78,0,0,1,5,3.33,14.7,14.7,0,0,1,3.11,5.19A19.82,19.82,0,0,1,695.18,76.06Zm-7.9,0a14.94,14.94,0,0,0-.58-4.38,9.47,9.47,0,0,0-1.61-3.19,6.53,6.53,0,0,0-2.48-1.93,7.7,7.7,0,0,0-3.16-.65,7.5,7.5,0,0,0-3.11.65,6.47,6.47,0,0,0-2.46,1.93,9.48,9.48,0,0,0-1.62,3.19,16.87,16.87,0,0,0,0,8.77,9.21,9.21,0,0,0,1.63,3.17,7,7,0,0,0,2.48,1.93,7.31,7.31,0,0,0,3.14.66,7.17,7.17,0,0,0,3.13-.66,6.8,6.8,0,0,0,2.45-1.93,9.36,9.36,0,0,0,1.61-3.17A15,15,0,0,0,687.28,76.06Z"/><path class="cls-2" d="M718,86.31a25.44,25.44,0,0,0,4.64-.45,35.38,35.38,0,0,0,4.89-1.29v6.09A22.81,22.81,0,0,1,723,91.89a34.64,34.64,0,0,1-6.35.58,22.77,22.77,0,0,1-6.3-.86,13.61,13.61,0,0,1-5.2-2.75,13.19,13.19,0,0,1-3.53-4.93,18.54,18.54,0,0,1-1.31-7.35,20.66,20.66,0,0,1,1.23-7.45,15.19,15.19,0,0,1,3.28-5.28,13.51,13.51,0,0,1,4.73-3.14,14.8,14.8,0,0,1,5.49-1.05,16,16,0,0,1,5.46.9,10.9,10.9,0,0,1,4.32,2.84,13.37,13.37,0,0,1,2.84,5,23,23,0,0,1,1,7.2c0,1.07-.05,2-.09,2.74H708.13a9.35,9.35,0,0,0,1,3.69,7.1,7.1,0,0,0,2.11,2.48,8.56,8.56,0,0,0,3,1.39A15.63,15.63,0,0,0,718,86.31ZM715,65.62a5.84,5.84,0,0,0-4.52,2,7.09,7.09,0,0,0-1.31,2.15,10,10,0,0,0-.64,2.61h12.27a8.81,8.81,0,0,0-.37-2.61,6.41,6.41,0,0,0-1.09-2.15,5.26,5.26,0,0,0-1.81-1.45A5.72,5.72,0,0,0,715,65.62Z"/><path class="cls-2" d="M751.41,92.47a11.09,11.09,0,0,1-4.56-.92,11.29,11.29,0,0,1-3.4-2.27h-.13c0,.43,0,1,.07,1.82s0,1.64,0,2.56v13h-7.64V60.43h6.71l.32,3.52h.13a11.07,11.07,0,0,1,3.64-3.08,10.56,10.56,0,0,1,5.15-1.21,14,14,0,0,1,5,1,12.18,12.18,0,0,1,4.36,2.92,14.48,14.48,0,0,1,3,5,20,20,0,0,1,1.14,7.12,21.08,21.08,0,0,1-1.22,7.53,15.57,15.57,0,0,1-3.23,5.25,13,13,0,0,1-4.43,3.08A13.17,13.17,0,0,1,751.41,92.47Zm-1-26.69a8.24,8.24,0,0,0-3.8,1,10.69,10.69,0,0,0-3.19,2.56V83.25a9.52,9.52,0,0,0,1.16,1.1,10.36,10.36,0,0,0,1.51,1,9.15,9.15,0,0,0,1.86.75,7.73,7.73,0,0,0,2.11.29,6.29,6.29,0,0,0,5.46-2.9,10.73,10.73,0,0,0,1.4-3.31,17.1,17.1,0,0,0,.49-4.27,17.55,17.55,0,0,0-.5-4.41,9.51,9.51,0,0,0-1.42-3.16,6.06,6.06,0,0,0-2.21-1.9A6.31,6.31,0,0,0,750.41,65.78Z"/></g></svg>